<?xml version="1.0" standalone="no"?>
<!DOCTYPE svg PUBLIC "-//W3C//DTD SVG 20010904//EN"
 "http://www.w3.org/TR/2001/REC-SVG-20010904/DTD/svg10.dtd">
<svg version="1.0" xmlns="http://www.w3.org/2000/svg"
 width="500.000000pt" height="500.000000pt" viewBox="0 0 500.000000 500.000000"
 preserveAspectRatio="xMidYMid meet">
<metadata>
Created by potrace 1.11, written by Peter Selinger 2001-2013
</metadata>
<g transform="translate(0.000000,500.000000) scale(0.100000,-0.100000)"
fill="#000000" stroke="none">
<path d="M3747 3762 c-9 -4 -134 -124 -277 -266 -142 -142 -264 -255 -269
-251 -7 3 -8 0 -5 -9 4 -11 0 -16 -10 -16 -9 0 -15 -4 -13 -9 1 -5 -1 -10 -5
-10 -4 -1 -23 -17 -43 -36 -19 -20 -35 -32 -35 -27 0 4 5 13 12 20 9 9 7 16
-7 32 -17 19 -35 19 -35 -1 0 -6 4 -8 9 -4 15 9 25 -15 12 -28 -9 -9 -10 -7
-5 7 5 13 4 17 -4 12 -16 -9 -26 13 -12 29 7 8 7 15 1 19 -5 3 -11 0 -14 -6
-2 -8 -8 -9 -13 -4 -5 5 -4 11 4 13 6 3 9 9 6 14 -4 6 -11 6 -19 -1 -11 -9
-16 -6 -26 12 -7 13 -11 25 -10 28 1 2 -3 6 -10 9 -7 2 -9 -1 -4 -9 5 -9 4
-11 -4 -6 -6 4 -9 12 -6 17 4 5 1 9 -4 9 -6 0 -11 -5 -11 -12 0 -9 -3 -9 -11
-1 -22 22 0 34 32 18 16 -9 33 -13 38 -11 5 3 7 -8 5 -25 -3 -27 -2 -30 11
-19 8 7 15 9 15 5 0 -4 7 -2 15 5 17 14 20 30 4 30 -5 0 -7 -4 -4 -10 3 -5 -1
-10 -9 -10 -9 0 -15 3 -15 8 4 25 -2 33 -22 27 -14 -5 -19 -4 -15 4 5 7 1 9
-11 4 -10 -3 -15 -2 -11 2 5 5 -1 15 -12 22 -11 8 -18 19 -15 24 4 5 1 9 -4 9
-6 0 -11 -7 -11 -15 0 -8 5 -15 11 -15 5 0 7 -5 4 -10 -5 -8 -11 -7 -21 1 -7
6 -12 15 -9 19 3 4 -3 14 -13 21 -15 13 -16 12 -3 -3 15 -21 2 -24 -18 -5 -11
10 -12 9 -6 -2 6 -11 4 -13 -8 -8 -10 4 -14 2 -11 -6 3 -9 -6 -12 -28 -11 -44
3 -45 3 -28 14 8 5 11 12 7 17 -5 4 -12 1 -17 -7 -7 -12 -11 -12 -26 1 -11 9
-15 9 -10 2 4 -7 3 -13 -3 -13 -5 0 -9 -9 -8 -19 0 -11 5 -17 9 -15 5 3 6 9 4
13 -3 4 5 8 17 8 21 2 21 1 4 -12 -12 -8 -14 -15 -8 -20 6 -3 11 -12 11 -18 0
-7 -4 -6 -10 3 -5 8 -10 11 -10 6 0 -5 -7 -3 -15 4 -8 6 -20 8 -26 4 -9 -5 -7
-10 7 -15 12 -5 3 -7 -23 -4 -24 1 -43 -1 -43 -6 0 -5 -5 -8 -12 -6 -7 1 -12
-3 -13 -10 0 -6 -3 -14 -7 -18 -4 -4 -4 -14 -1 -23 8 -22 -1 -13 -16 15 -10
20 -9 22 5 16 11 -4 15 -2 11 4 -4 6 -16 13 -27 16 -18 5 -19 4 -4 -24 8 -16
11 -29 8 -29 -4 0 1 -10 12 -22 10 -13 12 -18 5 -11 -7 6 -20 9 -27 6 -16 -6
-19 13 -4 22 6 4 3 15 -7 30 -10 12 -21 21 -25 18 -5 -2 -8 0 -8 6 0 5 6 12
13 14 9 4 9 6 0 6 -21 2 -27 -22 -9 -35 10 -7 13 -15 7 -18 -5 -4 -17 4 -26
16 -8 13 -19 23 -23 23 -4 0 -6 3 -5 8 2 4 -2 7 -7 7 -14 0 -13 -13 2 -28 16
-16 -4 -16 -21 1 -11 10 -13 10 -7 0 4 -7 3 -13 -2 -13 -16 0 -22 13 -11 27 9
9 8 13 0 13 -6 0 -11 -4 -11 -9 0 -5 -9 -13 -20 -16 -11 -4 -18 -11 -14 -16 3
-6 12 -5 22 3 13 11 15 11 7 -2 -4 -8 -5 -12 0 -8 4 4 14 3 22 -3 10 -9 13 -8
13 1 0 7 8 3 18 -9 18 -22 68 -39 56 -19 -4 7 -3 8 4 4 17 -10 15 -29 -3 -23
-8 4 -17 2 -20 -2 -7 -12 15 -19 48 -16 15 2 25 -1 22 -5 -3 -5 -12 -7 -20 -3
-11 4 -14 0 -9 -13 5 -16 4 -16 -5 -4 -6 8 -11 11 -11 5 0 -5 -4 -3 -10 5 -5
8 -12 11 -16 7 -4 -3 -2 -12 4 -20 6 -7 7 -18 3 -26 -6 -9 -11 -10 -15 -2 -4
6 -2 11 5 11 9 0 9 4 -1 15 -6 8 -9 19 -5 25 7 11 -8 14 -19 3 -10 -11 -37
-12 -30 -2 3 5 10 7 15 4 5 -4 9 -3 9 2 -1 27 -50 45 -50 18 0 -10 5 -13 12
-9 7 5 8 3 3 -6 -6 -10 -11 -9 -22 6 -12 16 -11 20 9 31 13 7 20 13 16 14 -25
5 -34 3 -46 -11 -12 -13 -13 -13 -9 1 6 19 -46 72 -59 61 -4 -4 -4 -1 0 6 4 7
13 9 19 6 7 -4 9 -4 5 1 -4 4 -3 14 3 22 16 18 1 17 -17 -2 -9 -8 -21 -15 -27
-15 -7 0 -3 7 7 15 11 8 14 15 7 15 -7 0 -9 5 -5 13 6 9 5 9 -7 0 -8 -6 -24
-10 -34 -8 -11 2 -22 4 -25 4 -3 1 2 6 10 12 12 8 10 9 -7 4 -12 -3 -24 -1
-28 5 -5 8 -11 8 -20 0 -10 -8 -16 -7 -24 7 -9 15 -10 14 -7 -9 3 -16 0 -28
-5 -28 -6 0 -7 -4 -4 -10 3 -5 1 -10 -4 -10 -6 0 -11 5 -11 11 0 5 -5 7 -12 3
-7 -5 -8 -3 -3 6 5 8 3 11 -6 8 -8 -3 -13 -14 -11 -24 3 -18 3 -18 -12 1 -12
16 -17 17 -24 7 -7 -11 -10 -10 -15 3 -4 9 -3 13 3 10 6 -3 10 -2 10 4 0 5 9
8 20 6 11 -2 18 -1 16 3 -2 4 4 8 14 8 10 0 17 -4 14 -7 -2 -4 0 -11 6 -14 7
-4 10 3 7 19 -1 15 -14 33 -28 42 l-24 16 23 -20 c22 -20 15 -41 -9 -26 -6 3
-15 0 -20 -7 -7 -11 -9 -11 -9 3 0 9 6 19 13 21 9 4 9 6 -1 6 -8 1 -16 -8 -19
-19 -3 -11 -14 -20 -25 -20 -10 0 -16 5 -13 10 4 6 12 7 18 4 8 -5 8 -3 0 6
-11 12 -15 11 -28 -6 -13 -17 -14 -17 -15 -2 0 26 -19 32 -40 13 -15 -13 -17
-22 -10 -36 13 -23 13 -29 -2 -29 -6 0 -8 3 -5 6 3 4 2 15 -4 26 -8 15 -7 24
5 37 9 10 16 22 16 27 0 5 -5 1 -11 -8 -5 -9 -16 -15 -24 -12 -9 4 -18 -2 -23
-17 l-9 -23 -12 22 c-9 18 -16 20 -31 12 -10 -5 -20 -7 -23 -2 -2 4 -3 2 -1
-5 4 -19 -8 -23 -23 -8 -8 8 -20 15 -26 14 -8 0 -8 -2 1 -6 10 -4 10 -8 1 -19
-7 -8 -9 -17 -5 -21 3 -3 6 -1 6 7 0 9 3 10 14 1 10 -9 16 -8 26 4 19 22 50
38 50 26 0 -6 -12 -17 -26 -24 -16 -8 -22 -17 -16 -21 6 -3 13 -2 17 3 3 6 12
8 20 4 8 -3 15 0 15 5 0 6 8 9 19 7 14 -3 18 1 14 16 -3 10 -1 19 3 19 5 0 9
-13 9 -29 1 -16 -2 -28 -6 -25 -4 2 -9 -3 -13 -11 -3 -8 -11 -15 -18 -15 -9 0
-9 3 2 10 8 5 11 12 7 16 -3 4 -13 1 -22 -6 -11 -9 -15 -9 -15 -1 0 7 -5 9
-10 6 -8 -5 -8 -11 0 -20 8 -9 8 -15 0 -20 -6 -4 -9 -1 -8 7 2 8 -4 12 -15 10
-9 -2 -20 4 -23 13 -3 8 -10 15 -16 15 -5 0 -7 -4 -4 -9 3 -5 -1 -14 -9 -21
-18 -15 -68 -22 -59 -9 10 16 -8 10 -23 -8 -8 -10 -12 -12 -8 -5 4 7 0 12 -9
12 -8 0 -16 5 -18 12 -3 8 -7 6 -11 -5 -3 -9 -1 -19 5 -23 7 -5 8 -2 3 6 -5 8
-4 11 3 6 6 -4 8 -14 5 -23 -4 -11 -8 -13 -11 -5 -2 7 -9 12 -16 12 -7 0 -18
10 -25 23 -9 17 -10 17 -5 2 3 -11 8 -30 9 -42 2 -12 7 -28 11 -35 14 -21 14
-40 1 -30 -7 5 -22 8 -34 6 -13 -2 -23 1 -23 7 0 6 9 9 20 6 13 -3 18 -1 13 5
-4 7 -1 8 8 3 12 -8 12 -6 0 8 -14 18 -26 24 -17 8 3 -5 -4 -11 -15 -14 -16
-4 -19 -10 -14 -29 6 -19 5 -21 -6 -10 -7 6 -18 12 -23 12 -6 0 -3 -5 7 -11
21 -13 22 -25 1 -33 -12 -5 -15 -2 -10 9 3 9 2 13 -4 10 -6 -3 -10 -1 -10 6 0
7 -3 10 -6 6 -3 -3 -1 -14 4 -24 8 -13 7 -22 -5 -35 -9 -10 -11 -18 -6 -18 6
0 13 6 16 14 3 8 15 20 27 26 17 9 22 7 30 -15 5 -14 15 -25 21 -25 7 0 5 9
-5 25 -10 15 -12 25 -6 25 6 0 8 5 4 11 -4 8 -9 7 -16 -2 -8 -11 -9 -11 -5 1
2 8 10 14 16 12 7 -1 10 2 6 8 -3 6 0 7 9 4 19 -7 20 -16 5 -31 -8 -8 -8 -17
0 -31 14 -26 -3 -39 -25 -21 -13 11 -15 10 -12 -7 1 -10 12 -22 23 -26 12 -4
2 -6 -23 -4 -39 3 -70 -12 -55 -27 3 -4 -2 -15 -11 -26 -17 -18 -17 -20 1 -30
14 -8 15 -10 3 -11 -17 0 -56 -40 -40 -40 6 0 13 7 16 15 8 19 21 19 21 0 0
-8 -9 -18 -20 -21 -19 -6 -19 -7 -3 -16 16 -9 16 -12 -5 -34 -19 -20 -20 -26
-9 -39 9 -11 10 -19 4 -23 -13 -9 -15 -114 -2 -106 5 3 6 15 3 27 -5 16 -4 18
3 8 6 -8 12 -9 16 -3 3 5 -1 12 -9 16 -8 3 -15 11 -15 17 0 8 5 7 17 -2 10 -8
14 -9 10 -2 -4 6 -3 14 3 18 17 10 35 -9 36 -38 1 -20 -2 -25 -9 -18 -6 6 -16
11 -21 11 -6 -1 -1 -9 11 -19 12 -10 19 -21 16 -25 -4 -4 -8 -13 -10 -21 -2
-8 -4 -22 -6 -30 -2 -8 -7 -18 -12 -22 -4 -4 -5 -2 0 6 5 10 4 12 -4 7 -6 -4
-9 -12 -6 -17 4 -5 2 -9 -4 -9 -21 0 -20 19 1 34 12 9 18 16 13 16 -6 0 -4 4
4 9 9 6 10 11 2 15 -6 4 -11 2 -11 -4 0 -6 -5 -8 -11 -4 -8 5 -8 9 1 14 8 5 8
10 2 14 -5 3 -12 -1 -16 -9 -3 -8 -1 -17 4 -20 15 -9 12 -25 -4 -19 -9 4 -14
-3 -13 -20 0 -26 17 -39 41 -30 9 3 17 -3 21 -15 3 -11 20 -32 36 -45 29 -25
31 -53 3 -42 -21 8 -17 -11 9 -35 22 -21 22 -21 0 -10 -16 8 -23 8 -27 -2 -3
-6 -3 -2 0 10 5 23 5 23 -25 6 -16 -10 -27 -22 -24 -27 4 -5 1 -6 -7 -1 -13 8
-9 14 35 40 10 6 14 16 10 27 -4 10 -11 16 -16 13 -4 -3 -6 -12 -2 -20 3 -9
-1 -15 -10 -15 -9 0 -23 -10 -31 -22 -9 -12 -16 -17 -16 -11 0 6 7 16 15 23 8
7 15 18 15 24 0 6 -12 -2 -25 -17 -17 -19 -25 -23 -25 -13 0 9 -4 16 -10 16
-5 0 -10 -8 -10 -17 0 -15 -2 -16 -10 -3 -6 9 -5 17 2 21 5 4 6 9 1 12 -11 7
-45 -18 -36 -26 3 -4 1 -7 -6 -7 -8 0 -10 7 -6 20 4 13 2 20 -5 18 -7 -2 -15
4 -17 12 -4 13 -3 13 6 0 7 -10 11 -11 11 -2 0 6 5 12 11 12 5 0 8 -4 4 -9 -3
-5 0 -13 6 -17 7 -4 9 -3 5 4 -4 7 1 10 14 7 11 -2 18 -1 16 4 -6 9 55 8 71
-2 6 -4 14 -3 18 3 3 5 -1 10 -10 10 -9 0 -13 5 -10 10 5 8 12 7 23 -2 13 -11
14 -11 7 1 -6 10 -4 12 5 6 9 -5 11 -4 6 4 -4 6 -11 9 -16 6 -4 -3 -10 2 -13
10 -4 9 -1 12 9 8 7 -3 14 -1 14 4 0 12 -38 14 -45 2 -4 -5 -1 -9 4 -9 6 0 11
-5 11 -11 0 -5 -5 -7 -10 -4 -6 4 -22 -1 -36 -10 -24 -16 -24 -15 -20 11 4 21
2 24 -6 16 -9 -9 -17 -7 -32 6 -16 13 -18 13 -8 1 10 -13 8 -19 -7 -33 -18
-17 -20 -17 -30 2 -6 11 -7 23 -3 27 4 5 1 5 -6 1 -8 -5 -9 -13 -3 -24 10 -20
3 -45 -9 -37 -5 3 -7 13 -4 23 5 14 4 15 -5 2 -7 -11 -11 -11 -11 -2 0 9 -6 8
-24 -3 -23 -15 -25 -15 -34 2 -11 19 -24 13 -28 -12 -1 -8 3 -13 9 -12 6 1 11
-7 11 -18 0 -11 7 -26 16 -34 9 -7 4 -6 -12 3 -20 12 -28 12 -31 3 -3 -7 -6
-5 -6 6 -1 9 -5 17 -11 17 -5 0 -10 -8 -10 -17 0 -15 -2 -16 -10 -3 -6 10 -6
16 0 18 14 5 2 22 -13 18 -7 -1 -9 -1 -4 1 4 3 7 9 7 14 0 6 -6 7 -13 2 -21
-13 -35 -12 -41 4 -5 11 -1 13 17 8 18 -6 20 -5 10 6 -10 10 -18 10 -38 1 -15
-7 -24 -16 -21 -21 4 -5 3 -11 -1 -14 -5 -2 -2 -2 5 0 7 1 10 -2 7 -7 -4 -6 4
-14 17 -19 13 -6 16 -10 8 -10 -8 0 -25 7 -37 17 -21 16 -22 19 -8 46 17 32
20 51 4 23 -9 -15 -13 -16 -26 -5 -14 12 -15 11 -5 -9 18 -33 14 -38 -10 -17
-12 10 -18 13 -14 7 4 -7 2 -13 -3 -13 -6 0 -11 5 -11 10 0 6 -8 10 -17 10
-15 0 -15 -1 1 -13 17 -12 15 -14 -18 -15 -22 -1 -34 3 -31 8 3 6 2 10 -4 10
-5 0 -11 -5 -13 -11 -3 -9 -10 -9 -27 1 -15 7 -21 8 -17 1 4 -6 3 -11 -3 -11
-5 0 -11 8 -13 18 -3 14 -5 13 -10 -6 -3 -12 -2 -20 3 -16 5 3 9 1 9 -5 0 -19
-19 -21 -29 -4 -6 10 -11 13 -11 7 0 -6 12 -24 28 -39 15 -16 21 -25 15 -21
-7 4 -19 4 -25 -1 -7 -4 -17 -8 -23 -8 -5 -1 -9 -7 -7 -15 1 -9 -7 -4 -18 9
-16 19 -18 26 -8 32 7 5 8 9 2 9 -21 0 -23 -13 -8 -42 9 -17 11 -27 6 -24 -6
3 -13 -1 -16 -10 -4 -11 -2 -15 8 -11 12 5 11 0 -2 -23 -9 -16 -20 -26 -24
-24 -5 3 -8 0 -8 -5 0 -6 5 -11 12 -11 6 0 8 -3 5 -7 -4 -3 -16 2 -26 11 -11
10 -25 15 -32 11 -7 -5 -10 -3 -7 6 3 8 11 13 17 11 7 -1 9 2 5 9 -5 8 -3 9 6
4 9 -6 11 -4 5 5 -5 9 -4 11 4 6 7 -5 10 -2 9 6 -2 7 2 12 9 11 20 -4 22 24 2
46 -22 23 -38 29 -20 7 7 -8 8 -16 4 -18 -4 -3 -3 -3 4 -2 7 2 15 -1 18 -6 6
-10 -7 -14 -33 -11 -6 1 -20 -3 -30 -9 -13 -8 -11 -9 13 -4 l30 7 -25 -24
c-13 -13 -28 -23 -32 -22 -4 2 -5 -3 -2 -10 2 -7 -4 -21 -14 -30 -13 -12 -18
-28 -16 -52 1 -23 -1 -33 -8 -29 -7 4 -8 2 -4 -4 4 -7 2 -12 -3 -12 -6 0 -11
-7 -11 -15 0 -13 -4 -14 -23 -4 -16 8 -19 8 -11 0 19 -20 53 -21 64 -2 5 10 6
22 2 27 -4 5 1 2 11 -5 18 -14 24 -26 7 -16 -6 3 -10 1 -10 -4 0 -6 5 -11 11
-11 5 0 7 -5 3 -12 -5 -8 -1 -9 12 -4 16 6 17 5 6 -6 -11 -11 -16 -10 -27 5
-7 10 -16 14 -19 8 -3 -5 6 -19 21 -31 23 -17 24 -19 5 -10 -14 7 -28 8 -35 3
-13 -10 -27 -11 -42 -2 -18 10 -38 4 -42 -11 -4 -12 -3 -12 5 -2 13 20 17 19
43 -3 12 -11 19 -14 14 -6 -5 8 2 7 19 -4 15 -10 24 -20 22 -23 -3 -3 -12 1
-21 8 -9 8 -15 8 -15 2 0 -6 5 -14 11 -18 8 -5 6 -10 -5 -16 -9 -5 -20 -7 -25
-3 -5 3 -12 1 -16 -5 -5 -8 14 -15 37 -11 10 1 3 -28 -10 -41 -8 -8 -8 -17 -1
-30 7 -13 7 -18 -2 -16 -6 2 -14 -3 -17 -11 -3 -9 0 -11 9 -6 11 6 11 5 2 -5
-8 -9 -9 -19 -2 -32 7 -14 7 -18 -3 -16 -8 2 -13 -7 -12 -24 1 -15 -2 -25 -7
-23 -4 3 -10 1 -14 -5 -3 -5 -2 -10 3 -10 6 0 8 -9 5 -20 -3 -11 -10 -20 -15
-20 -5 0 -6 4 -3 10 3 5 1 10 -5 10 -13 0 -5 -49 11 -64 9 -8 9 -6 0 12 -6 12
-9 22 -7 22 9 0 28 -42 31 -67 3 -29 32 -64 32 -39 0 8 -4 13 -8 11 -13 -8
-20 28 -8 39 9 8 10 8 6 0 -4 -7 0 -15 9 -18 22 -8 31 -7 17 2 -7 4 27 7 75 6
115 -2 114 -2 107 -14 -5 -8 -12 -7 -23 2 -9 7 -13 8 -10 3 4 -7 -11 -11 -44
-10 -58 0 -72 -16 -31 -33 24 -11 26 -10 11 1 -10 8 -15 17 -11 21 3 3 15 -1
25 -11 10 -9 18 -13 18 -8 0 4 7 2 15 -5 10 -9 15 -9 15 -1 0 6 -5 11 -11 11
-5 0 -8 4 -5 9 4 5 14 8 24 6 9 -2 19 -4 22 -4 3 -1 -2 -6 -10 -11 -9 -6 -10
-10 -3 -10 6 0 14 4 18 10 3 5 12 7 19 4 7 -3 16 2 19 10 4 9 11 16 17 16 12
0 9 -22 -5 -32 -5 -4 -6 -10 -2 -14 4 -4 17 5 29 21 l22 28 19 -24 c11 -13 27
-24 36 -24 9 -1 15 -6 14 -13 -2 -7 2 -12 7 -12 15 0 12 16 -5 30 -20 17 -19
26 5 26 12 0 19 -6 17 -16 -3 -19 25 -20 30 0 4 13 3 13 -6 0 -5 -8 -13 -12
-16 -8 -7 7 22 38 36 38 6 0 8 -4 5 -8 -2 -4 -1 -13 2 -19 10 -17 32 -1 37 27
6 31 27 44 41 25 14 -19 21 -19 21 0 0 8 -4 15 -8 15 -4 0 -9 6 -12 13 -3 8 1
14 9 14 7 0 11 -4 8 -9 -3 -4 0 -8 6 -8 7 0 10 -7 7 -15 -8 -19 12 -30 26 -15
9 10 9 11 -1 6 -6 -4 -12 -3 -12 2 0 5 12 14 26 20 16 8 22 17 18 25 -5 8 -2
8 9 -2 9 -7 17 -19 17 -25 0 -8 -2 -8 -8 1 -9 14 -36 -4 -38 -24 -1 -7 -2 -17
-2 -21 -2 -10 -32 -12 -32 -2 0 4 -11 6 -24 5 -19 -2 -23 1 -18 13 5 14 4 15
-10 2 -9 -8 -12 -17 -7 -18 6 -2 4 -11 -3 -20 -8 -10 -9 -13 -1 -9 6 4 13 4
16 0 2 -5 2 -3 1 4 -2 7 1 15 6 18 10 6 14 -7 11 -35 -2 -13 -1 -13 8 0 5 8 7
18 5 22 -6 10 26 5 45 -6 10 -6 12 -5 7 2 -4 7 -2 12 3 12 10 0 15 -14 12 -32
0 -5 4 -8 10 -8 6 0 8 7 5 16 -4 9 -2 22 4 29 8 10 8 15 -1 21 -8 5 -9 3 -4
-6 5 -9 4 -11 -3 -6 -17 10 -15 29 3 22 8 -3 18 2 23 10 8 14 10 14 22 -1 11
-13 10 -15 -6 -9 -10 4 -16 4 -12 -1 4 -4 2 -17 -3 -28 -14 -25 1 -36 42 -31
21 3 28 0 23 -8 -4 -7 -3 -8 5 -4 6 4 9 12 6 17 -3 5 1 6 10 3 14 -6 14 -8 0
-24 -13 -14 -13 -17 0 -17 8 0 12 4 10 8 -7 11 23 32 35 24 5 -3 10 -1 10 4 0
6 4 11 10 11 5 0 7 -7 4 -15 -6 -15 7 -21 20 -8 3 4 14 8 24 9 15 2 14 1 -2
-12 -11 -8 -16 -14 -10 -15 5 0 20 -2 34 -5 21 -3 22 -2 8 6 -11 7 -15 17 -11
27 5 13 2 15 -11 10 -10 -4 -15 -3 -11 3 3 5 -4 7 -15 5 -13 -2 -18 0 -14 7 4
6 -2 6 -15 -1 -12 -7 -26 -9 -31 -6 -6 3 -10 0 -10 -7 0 -8 -3 -9 -8 -3 -4 6
-16 10 -27 10 -11 0 -25 3 -32 8 -7 5 -15 2 -21 -9 -5 -10 -12 -12 -16 -6 -9
15 21 35 59 37 18 1 34 -1 33 -4 -2 -19 4 -24 11 -12 5 8 17 16 25 17 9 1 14
-2 10 -7 -7 -12 3 -11 26 1 16 9 18 8 13 -6 -6 -15 -3 -15 23 1 23 13 25 14
10 1 -26 -21 -3 -21 30 0 23 16 24 16 17 -2 -6 -18 -6 -18 14 -1 15 13 23 15
28 7 9 -15 -5 -29 -34 -35 -14 -2 -19 0 -15 7 5 7 2 8 -6 3 -9 -6 -11 -4 -5 6
5 8 4 11 0 6 -12 -10 -17 -47 -7 -47 4 0 14 6 21 13 11 10 13 9 8 -4 -6 -20
24 -19 48 1 15 13 19 12 35 -8 10 -12 22 -22 26 -22 4 0 -1 9 -11 20 -16 17
-16 20 -2 20 8 0 17 -3 20 -7 2 -5 3 -3 1 3 -1 6 3 17 9 24 9 10 9 11 -2 5
-10 -6 -12 -4 -6 5 5 9 4 11 -4 6 -6 -4 -9 -12 -6 -17 4 -5 2 -9 -4 -9 -5 0
-9 8 -8 18 0 12 9 18 23 18 13 0 22 -2 22 -6 -2 -18 4 -23 11 -11 5 8 17 16
25 17 9 1 14 -2 10 -7 -3 -5 -11 -6 -17 -2 -8 5 -8 2 1 -9 7 -8 10 -24 6 -34
-5 -18 -5 -18 6 -1 6 9 8 22 5 27 -3 6 -2 10 3 10 6 0 13 11 16 25 6 23 19 29
56 26 12 -1 11 2 -3 13 -16 12 -16 14 -2 20 9 3 13 2 10 -4 -3 -6 -3 -10 2
-11 4 0 16 -2 26 -4 12 -2 17 1 13 10 -3 9 0 12 10 8 11 -4 12 -9 3 -19 -15
-18 2 -18 26 0 18 13 18 14 -3 20 -12 4 -22 12 -22 18 0 7 5 6 15 -2 8 -6 19
-9 25 -5 6 4 9 1 8 -7 -2 -7 3 -12 11 -10 11 2 12 0 3 -11 -9 -11 -7 -16 13
-27 13 -7 22 -17 19 -22 -3 -5 6 -7 20 -4 20 4 24 1 19 -12 -6 -15 -5 -15 11
-3 23 19 56 21 63 4 3 -7 10 -10 16 -6 5 3 7 1 3 -5 -3 -6 -2 -13 3 -16 5 -4
13 4 16 15 6 19 9 20 16 7 5 -10 17 -14 29 -11 11 3 20 0 20 -6 0 -6 -7 -8
-17 -4 -10 4 -14 2 -9 -5 3 -6 1 -14 -5 -18 -7 -4 -9 -3 -6 2 3 5 -3 10 -14
10 -18 0 -18 -2 -5 -12 9 -6 13 -14 9 -17 -3 -4 -1 -7 5 -7 7 0 12 5 12 11 0
5 5 7 12 3 7 -5 8 -3 3 6 -6 10 -4 11 11 5 10 -4 28 -8 39 -8 11 -1 24 -6 28
-11 5 -7 7 -4 3 7 -3 9 -2 17 3 17 15 0 20 -13 12 -29 -8 -13 -4 -17 21 -18
20 0 26 2 17 7 -7 5 -17 6 -21 4 -4 -3 -8 -1 -8 5 0 5 5 13 10 16 6 4 8 11 4
16 -3 5 -10 6 -16 3 -7 -4 -8 -2 -4 5 4 6 2 19 -5 27 -10 12 -9 13 3 9 8 -3
21 -21 28 -41 12 -31 39 -43 32 -15 -4 21 19 11 28 -11 7 -18 9 -19 9 -5 1 22
6 22 44 -5 27 -19 30 -19 17 -3 -14 17 -13 18 2 12 10 -3 20 -2 22 2 3 5 -5 8
-17 8 -38 1 -47 3 -46 11 4 21 -3 32 -18 32 -17 -1 -17 -1 -1 -14 15 -11 12
-12 -23 -12 -34 0 -39 3 -37 21 2 11 7 18 12 17 5 -2 13 2 18 10 8 10 9 10 5
-2 -2 -8 -10 -14 -16 -12 -6 1 -11 -5 -11 -14 0 -15 2 -15 26 1 14 9 33 14 41
11 9 -4 21 -2 27 3 8 7 15 4 23 -8 9 -14 8 -18 -3 -18 -7 0 -11 4 -8 9 3 4 0
8 -5 8 -6 0 -11 -7 -11 -15 0 -9 8 -14 20 -12 28 4 35 14 20 31 -6 9 -10 20
-8 25 1 5 11 -7 21 -26 9 -19 13 -32 7 -28 -6 4 -5 -4 2 -19 6 -15 13 -24 15
-22 9 8 10 55 2 50 -5 -3 -9 0 -9 5 0 6 5 11 11 11 5 0 8 4 5 8 -3 5 1 9 9 9
8 0 17 -9 21 -19 5 -17 25 -26 23 -10 -3 19 2 32 12 32 8 0 9 -4 0 -13 -6 -8
-8 -17 -4 -20 9 -10 25 -9 19 1 -2 4 0 14 6 22 8 12 9 12 4 -3 -3 -11 0 -20 9
-23 8 -4 12 -11 9 -16 -4 -6 -9 -6 -14 2 -5 8 -14 2 -29 -19 -17 -23 -18 -29
-7 -25 9 3 16 12 16 20 0 8 5 14 11 14 5 0 8 -4 5 -9 -3 -5 7 -16 22 -25 l27
-17 -22 19 c-12 11 -19 22 -16 26 4 3 16 -3 27 -13 18 -17 24 -18 39 -6 12 8
14 15 8 20 -6 3 -11 1 -11 -6 0 -7 -3 -9 -6 -6 -4 4 -1 13 6 22 8 10 9 15 1
15 -6 0 -11 -4 -11 -8 0 -4 -10 -9 -22 -9 -16 -2 -19 0 -10 6 11 7 10 9 -2 14
-9 4 -16 12 -15 19 0 10 2 10 6 0 2 -6 9 -10 14 -6 5 3 9 1 9 -5 0 -11 39 -9
59 3 7 4 15 5 18 2 3 -3 13 0 22 7 14 11 14 10 2 -6 -12 -16 -11 -17 10 -13
13 3 26 5 29 6 3 2 8 2 13 1 4 0 7 3 7 9 0 5 5 10 10 10 6 0 9 -3 9 -7 -3 -20
2 -26 11 -13 7 11 10 11 10 2 0 -8 5 -10 13 -6 8 5 8 3 -2 -9 -7 -9 -18 -14
-24 -10 -5 3 -7 2 -4 -4 3 -5 0 -10 -8 -10 -8 0 -11 5 -8 10 3 6 1 7 -5 3 -16
-10 -15 -29 1 -23 6 2 24 -2 39 -9 30 -15 58 -9 58 12 0 17 12 18 28 2 10 -10
15 -10 21 1 7 11 9 11 14 0 3 -8 4 2 1 23 -3 22 0 39 7 43 8 5 9 1 4 -16 -7
-21 -6 -22 8 -11 10 9 17 10 22 2 6 -9 0 -14 -16 -12 -10 2 -8 -48 2 -54 5 -3
6 3 2 12 -4 11 -3 15 5 10 6 -3 14 -1 18 5 4 8 3 9 -4 5 -7 -4 -12 -3 -12 3 0
20 19 21 30 1 9 -17 14 -18 30 -8 10 7 17 14 15 17 -3 2 -12 -2 -20 -9 -14
-12 -15 -10 -11 14 4 22 2 25 -8 17 -10 -9 -15 -7 -20 5 -4 9 -4 19 -1 22 3 3
5 0 5 -6 0 -7 4 -12 10 -12 5 0 7 8 4 18 -3 9 3 4 13 -11 11 -18 24 -26 36
-23 9 2 21 -2 25 -10 7 -12 11 -9 20 11 7 15 8 24 2 20 -16 -10 -11 1 7 16 14
12 16 12 9 0 -6 -9 -5 -12 5 -9 8 3 13 14 11 24 -2 18 -2 18 8 2 13 -21 36
-24 44 -5 3 6 4 3 1 -8 -6 -24 9 -50 23 -41 6 3 13 3 16 -2 2 -4 -4 -13 -15
-20 -14 -9 -19 -9 -19 0 0 6 -3 9 -6 5 -3 -3 -1 -14 5 -24 6 -11 11 -13 11 -5
0 7 5 10 12 6 6 -4 8 -3 5 3 -4 6 0 14 9 17 13 5 15 2 11 -14 -3 -11 -1 -17 4
-14 5 3 8 18 6 32 -3 20 -9 27 -25 26 -12 -1 -19 3 -15 9 4 6 1 7 -8 3 -8 -4
-6 -1 3 7 10 8 14 18 10 22 -4 5 -2 5 5 1 7 -4 9 -14 6 -24 -5 -15 -3 -14 18
3 16 13 19 14 11 3 -11 -14 -10 -18 3 -26 9 -5 16 -12 16 -15 -3 -25 0 -28 16
-16 15 12 16 12 10 -3 -3 -10 -2 -20 4 -23 5 -4 9 -3 8 2 -3 20 2 34 11 28 5
-3 7 -12 4 -19 -3 -8 -1 -17 5 -21 7 -4 8 0 4 11 -5 13 -3 15 8 9 12 -7 12 -6
1 7 -11 14 -10 18 5 27 15 8 13 9 -12 7 -17 -1 -36 -5 -43 -10 -7 -4 -16 -6
-19 -3 -2 3 5 10 16 16 13 7 18 18 15 29 -5 15 -4 15 6 -1 10 -15 14 -16 28
-5 12 10 14 10 8 1 -4 -9 -1 -13 9 -13 10 0 15 6 12 13 -3 8 1 14 8 14 8 0 11
-7 7 -16 -5 -14 -3 -14 11 -2 12 9 21 10 30 4 6 -6 20 -9 29 -8 9 2 28 -9 42
-23 13 -15 31 -32 38 -39 7 -7 18 -18 24 -25 6 -7 21 -19 32 -27 12 -8 19 -18
16 -23 -3 -5 -2 -7 3 -6 4 2 26 -14 48 -34 75 -72 136 -64 230 28 37 37 71 62
77 58 7 -4 8 -3 4 4 -7 11 6 26 67 79 25 21 38 21 33 0 -2 -7 -1 -9 1 -4 10
17 23 6 13 -12 -10 -20 -9 -21 38 -6 12 4 22 12 22 17 0 5 5 6 12 2 7 -4 8 -3
4 4 -4 7 -3 12 3 12 18 0 23 -20 7 -26 -9 -3 -16 -10 -16 -15 0 -16 15 -8 37
20 l21 27 -26 0 c-15 -1 -42 -12 -60 -24 l-33 -24 5 25 c3 19 1 24 -10 20 -9
-3 -14 1 -14 13 0 11 4 15 8 9 9 -14 145 -14 154 -1 5 7 8 6 8 -2 0 -15 31
-12 42 3 5 6 8 3 8 -7 0 -14 4 -13 24 6 34 35 37 61 12 88 -21 23 -30 58 -15
58 5 0 13 9 19 19 7 15 7 19 -4 17 -8 -1 -20 -7 -28 -14 -8 -6 -18 -9 -21 -5
-4 3 -7 1 -7 -6 0 -7 6 -11 13 -8 8 3 14 -1 14 -9 0 -21 -15 -17 -33 11 -15
23 -15 26 0 41 10 9 20 13 24 10 3 -4 0 -11 -7 -15 -8 -5 -9 -11 -3 -15 12 -7
25 21 16 36 -7 11 25 50 37 43 4 -3 11 0 15 6 4 8 3 9 -4 5 -35 -21 13 30 267
284 153 154 284 294 291 310 7 18 10 45 5 67 -6 34 -69 101 -544 577 l-539
539 -48 3 c-27 2 -57 0 -67 -4z m578 -607 c300 -300 515 -522 515 -533 0 -20
-500 -522 -520 -522 -7 0 -11 -3 -7 -6 6 -6 -53 -69 -65 -69 -4 0 -13 -8 -21
-19 -8 -10 -20 -16 -28 -13 -10 4 -9 6 4 6 14 1 16 5 8 20 -6 10 -7 21 -4 25
3 3 2 6 -4 6 -17 0 -23 -13 -12 -27 7 -8 8 -13 1 -13 -14 0 -23 28 -11 35 11
7 2 25 -12 25 -6 0 -7 -4 -4 -10 3 -6 -1 -7 -10 -4 -14 6 -14 8 2 20 13 10 14
13 4 14 -8 0 -24 -8 -35 -18 -21 -17 -21 -17 -3 4 18 21 14 59 -5 48 -6 -4 -6
-9 2 -14 9 -5 9 -9 1 -14 -6 -4 -11 -2 -11 4 0 6 -5 8 -12 4 -10 -6 -10 -4 0
8 11 14 9 19 -10 32 -12 9 -17 16 -10 16 6 0 12 7 12 16 0 8 5 12 10 9 6 -4 7
-11 4 -17 -4 -7 -2 -8 4 -4 7 4 12 2 12 -3 0 -6 -5 -11 -12 -11 -6 0 -8 -3 -4
-7 7 -8 11 -9 37 -12 5 0 7 -5 4 -11 -3 -5 5 -15 19 -21 14 -7 23 -16 20 -20
-5 -9 36 -35 49 -31 5 1 6 -1 3 -6 -3 -5 1 -9 9 -9 8 0 15 4 15 9 0 4 -4 8
-10 8 -5 0 -10 5 -10 11 0 6 7 8 16 5 9 -3 12 -2 9 5 -4 6 -13 8 -21 5 -8 -3
-14 -1 -14 4 0 6 -5 10 -12 10 -9 0 -9 -3 0 -12 19 -19 14 -29 -7 -16 -23 14
-23 30 -1 40 11 5 8 7 -8 7 -13 1 -20 5 -17 11 3 6 1 10 -5 10 -7 0 -10 -7 -7
-14 4 -9 1 -13 -6 -10 -7 2 -13 14 -14 24 -1 11 2 18 7 15 5 -3 11 -1 14 4 7
11 -13 9 -31 -2 -13 -8 -15 -2 -15 56 -1 15 -5 27 -10 27 -4 0 -5 -12 -2 -27
5 -22 4 -25 -5 -17 -7 6 -14 20 -16 30 -1 11 -8 18 -14 17 -6 -2 -11 3 -11 10
0 8 -3 7 -10 -3 -5 -8 -5 -19 -1 -25 16 -20 21 -46 8 -39 -42 26 -65 48 -60
61 3 8 0 13 -8 11 -7 -2 -13 2 -14 7 0 6 -6 20 -14 33 -10 19 -15 21 -27 11
-10 -8 -14 -8 -14 0 0 6 5 11 11 11 5 0 7 5 4 10 -4 6 -12 7 -18 3 -17 -10
-47 -11 -41 -1 4 5 12 7 20 4 14 -5 29 9 17 17 -5 2 -3 3 4 1 6 -1 14 0 17 4
13 12 58 13 74 0 11 -9 14 -9 9 -1 -5 8 2 14 20 18 235 48 360 106 405 189 53
96 -15 195 -178 261 -191 77 -580 96 -826 40 -37 -8 -73 -12 -81 -9 -8 3 -17
-2 -21 -11 -9 -24 -28 -7 -20 18 6 21 6 22 -14 4 -13 -12 -22 -15 -27 -7 -3 5
-11 7 -17 4 -7 -4 -7 0 0 13 11 20 36 24 59 10 6 -4 14 -3 17 1 7 11 -16 62
-27 62 -4 0 -3 -9 3 -19 13 -26 13 -28 -5 -28 -8 0 -15 4 -15 9 0 5 -9 4 -19
-2 -18 -9 -19 -7 -16 21 4 26 2 29 -10 19 -8 -7 -15 -10 -15 -6 0 16 3 21 11
19 11 -4 11 4 0 26 -8 13 -5 17 11 18 15 2 17 -1 8 -12 -15 -19 15 -48 38 -36
9 4 23 6 30 4 6 -3 12 0 12 6 0 9 -37 7 -47 -3 -11 -10 -31 19 -21 31 16 19
-27 37 -45 18 -13 -13 -16 -13 -21 1 -3 8 -2 12 4 9 6 -3 10 1 10 10 0 10 5
13 13 9 9 -6 9 -5 0 8 -7 8 -10 18 -6 22 11 10 12 37 2 30 -5 -3 -7 -9 -4 -14
3 -4 -3 -11 -12 -14 -14 -6 -15 -9 -4 -15 10 -6 5 -13 -18 -24 -19 -10 -33
-12 -37 -6 -3 6 -3 13 0 16 3 4 6 1 6 -5 0 -9 5 -9 19 0 23 14 18 30 -5 21 -9
-3 123 134 293 305 170 172 315 312 321 312 7 0 244 -232 527 -515z m-2289
210 c-5 -13 4 -19 25 -17 3 1 13 -12 22 -27 13 -22 13 -28 3 -28 -8 0 -12 7
-8 15 4 11 1 13 -8 7 -8 -5 -11 -4 -7 2 8 13 -20 26 -35 17 -15 -10 -29 18
-16 33 14 18 31 16 24 -2z m218 -27 c-5 -7 -2 -9 8 -5 9 3 19 3 23 -1 4 -4 12
-7 18 -7 7 0 12 -6 12 -13 0 -7 7 -17 15 -22 8 -5 10 -10 5 -10 -6 0 -16 5
-23 12 -9 9 -12 9 -12 -2 0 -9 -5 -7 -15 7 -10 15 -23 19 -44 17 -24 -3 -29 0
-28 16 1 10 4 17 8 14 4 -2 10 0 14 6 4 6 11 8 16 4 5 -3 6 -10 3 -16z m652
-9 c5 1 10 -8 10 -19 1 -21 -11 -27 -21 -10 -3 6 -13 10 -21 10 -8 0 -12 -5
-9 -11 4 -6 -2 -5 -14 3 -12 7 -21 17 -21 22 0 4 6 4 13 -2 10 -8 16 -6 26 10
9 15 15 18 21 9 4 -7 11 -12 16 -12z m-859 -6 c-4 -3 -1 -13 6 -21 11 -13 9
-14 -10 -2 -22 14 -22 30 -1 30 6 0 8 -3 5 -7z m773 -5 c0 -4 -5 -8 -11 -8 -5
0 -7 -4 -4 -10 3 -5 2 -10 -3 -10 -11 0 -23 25 -16 32 7 8 34 5 34 -4z m-690
-18 c0 -5 -5 -10 -11 -10 -5 0 -7 5 -4 10 3 6 8 10 11 10 2 0 4 -4 4 -10z m31
-13 c-10 -9 -11 -8 -5 6 3 10 9 15 12 12 3 -3 0 -11 -7 -18z m-311 3 c0 -5 -5
-10 -11 -10 -5 0 -7 5 -4 10 3 6 8 10 11 10 2 0 4 -4 4 -10z m397 4 c-3 -3
-12 -4 -19 -1 -8 3 -5 6 6 6 11 1 17 -2 13 -5z m-554 -55 c4 -16 3 -18 -9 -8
-7 6 -11 15 -8 20 8 13 11 11 17 -12z m846 -2 c6 -8 8 -17 5 -20 -10 -9 -45
13 -39 24 9 13 21 11 34 -4z m45 -18 c-3 -5 -10 -7 -15 -3 -5 3 -7 10 -3 15 3
5 10 7 15 3 5 -3 7 -10 3 -15z m-110 -77 c3 -5 -1 -9 -9 -9 -8 0 -12 4 -9 9 3
4 7 8 9 8 2 0 6 -4 9 -8z m130 -8 c3 -8 2 -12 -4 -9 -6 3 -10 10 -10 16 0 14
7 11 14 -7z m-34 -34 c0 -5 -2 -10 -4 -10 -3 0 -8 5 -11 10 -3 6 -1 10 4 10 6
0 11 -4 11 -10z m35 -8 c-3 -3 -11 0 -18 7 -9 10 -8 11 6 5 10 -3 15 -9 12
-12z m-55 -8 c0 -8 -19 -13 -24 -6 -3 5 1 9 9 9 8 0 15 -2 15 -3z m-931 -37
c15 4 15 3 0 -9 -15 -12 -15 -16 -3 -32 16 -23 10 -36 -17 -36 -10 0 -19 -5
-19 -11 0 -6 8 -8 18 -5 12 4 11 1 -5 -13 -30 -25 -29 -33 5 -26 20 4 22 3 7
-3 -19 -9 -19 -9 0 -20 11 -6 14 -12 7 -12 -7 0 -10 -4 -7 -10 3 -5 1 -10 -5
-10 -6 0 -10 7 -8 16 2 10 -3 19 -10 21 -8 3 -10 -2 -6 -14 4 -13 3 -14 -4 -5
-7 11 -10 11 -15 -2 -4 -9 1 -17 13 -21 10 -3 24 -13 31 -23 11 -14 11 -15 -1
-4 -21 18 -35 15 -19 -5 10 -11 10 -14 2 -9 -8 4 -13 2 -13 -4 0 -6 -4 -9 -9
-5 -6 3 -14 -2 -19 -11 -6 -11 -12 -13 -16 -6 -4 6 6 18 21 27 15 9 20 14 11
11 -9 -3 -22 2 -29 10 -10 12 -8 19 10 35 19 18 20 23 9 37 -10 12 -10 14 0 8
6 -4 12 -2 12 3 0 19 2 26 11 44 7 13 6 19 -6 23 -12 5 -13 10 -4 20 6 8 15
11 20 8 5 -3 9 -1 9 5 0 5 -5 13 -10 16 -6 4 -7 11 -4 17 4 6 10 6 16 0 6 -6
18 -8 27 -5z m1591 -58 c0 -6 -4 -7 -10 -4 -5 3 -10 11 -10 16 0 6 5 7 10 4 6
-3 10 -11 10 -16z m25 -19 c-3 -5 -12 -10 -18 -10 -7 0 -6 4 3 10 19 12 23 12
15 0z m-1595 -24 c0 -2 -7 -7 -16 -10 -8 -3 -12 -2 -9 4 6 10 25 14 25 6z
m1610 -46 c0 -5 -5 -10 -11 -10 -5 0 -7 5 -4 10 3 6 8 10 11 10 2 0 4 -4 4
-10z m60 -80 c0 -5 -2 -10 -4 -10 -3 0 -8 5 -11 10 -3 6 -1 10 4 10 6 0 11 -4
11 -10z m404 -50 c-33 -13 -82 -79 -89 -121 -4 -20 -2 -53 3 -73 9 -31 8 -37
-13 -50 -20 -13 -24 -13 -29 -1 -3 9 0 15 8 15 8 0 17 7 20 16 7 18 -2 13 -53
-31 l-23 -20 7 24 c5 16 4 21 -4 17 -6 -4 -11 -14 -11 -22 0 -8 -4 -14 -10
-14 -14 0 -12 12 7 39 9 14 11 21 5 17 -19 -11 -44 -65 -36 -78 5 -7 3 -8 -7
-2 -8 5 -22 9 -31 10 -10 1 -20 2 -23 3 -3 0 -8 1 -12 2 -5 1 -17 6 -28 12
-11 6 -27 12 -35 12 -8 0 -22 5 -30 10 -8 5 -18 10 -22 10 -3 0 -9 3 -12 6 -3
3 16 5 42 4 26 -1 53 2 60 8 8 6 12 6 12 -1 0 -6 -6 -13 -12 -15 -10 -4 -10
-6 0 -6 7 -1 14 5 16 12 2 6 7 21 12 32 11 30 5 55 -21 83 -13 14 -22 29 -19
34 3 4 0 8 -6 8 -6 0 -8 5 -4 11 5 8 9 8 14 -1 5 -8 9 -7 14 5 3 10 12 15 21
11 8 -3 17 -1 19 3 6 9 47 19 116 28 25 3 47 7 49 9 2 2 32 4 65 3 44 0 55 -3
40 -9z m326 -5 c156 -23 295 -78 321 -126 25 -47 -61 -105 -216 -144 -105 -27
-295 -44 -260 -23 99 58 107 203 17 278 l-37 30 40 0 c22 0 83 -7 135 -15z
m-950 -79 c0 -3 -4 -8 -10 -11 -5 -3 -10 -1 -10 4 0 6 5 11 10 11 6 0 10 -2
10 -4z m15 -36 c-3 -5 -12 -10 -18 -10 -7 0 -6 4 3 10 19 12 23 12 15 0z
m-144 -17 c13 -16 12 -17 -3 -4 -17 13 -22 21 -14 21 2 0 10 -8 17 -17z m-43
-34 c-3 -8 -7 -3 -11 10 -4 17 -3 21 5 13 5 -5 8 -16 6 -23z m64 -13 c10 -10
29 -18 42 -18 14 0 27 -6 29 -13 3 -6 -1 -12 -9 -12 -7 0 -11 3 -9 7 3 4 -10
7 -28 7 -19 -1 -31 4 -30 11 2 6 -4 9 -12 5 -13 -5 -13 -7 2 -20 10 -8 12 -11
4 -7 -9 5 -12 3 -7 -5 4 -6 12 -8 18 -5 7 5 8 2 3 -6 -6 -9 -4 -11 6 -5 11 6
12 5 2 -6 -17 -17 -16 -26 2 -26 9 0 14 6 11 13 -3 8 -1 16 4 19 9 6 14 -8 11
-27 0 -4 6 -5 14 -2 8 4 15 1 15 -6 0 -6 -4 -8 -10 -5 -5 3 -10 1 -10 -4 0
-14 17 -14 25 -1 10 16 24 2 20 -20 -3 -13 0 -18 7 -14 7 4 8 2 4 -5 -5 -7 -2
-10 6 -9 7 2 12 -2 11 -9 -2 -7 6 -17 18 -23 16 -9 18 -14 8 -26 -8 -10 -8
-14 0 -14 6 0 14 7 17 15 9 22 24 18 19 -4 -3 -15 1 -19 16 -16 11 2 17 0 14
-5 -3 -4 3 -7 12 -5 12 2 17 10 15 26 -3 23 -2 23 15 6 17 -17 16 -19 -22 -52
-22 -19 -47 -34 -55 -34 -11 0 -11 2 2 7 11 5 14 12 9 21 -7 10 -12 8 -25 -10
-9 -13 -16 -18 -16 -12 0 7 5 15 10 18 6 4 7 11 4 17 -5 7 -2 8 6 3 8 -5 11
-3 8 6 -3 8 -11 13 -17 11 -7 -1 -22 5 -34 14 -15 11 -16 15 -5 11 10 -4 20
-2 23 3 6 10 -6 14 -35 11 -8 -1 -21 8 -28 19 -8 13 -8 20 -1 20 5 0 7 5 4 11
-5 7 -14 4 -28 -8 -11 -10 -17 -13 -14 -6 4 6 3 15 -3 18 -6 4 -8 15 -5 24 3
12 0 18 -10 18 -8 0 -15 -4 -15 -8 0 -5 -9 -13 -20 -19 -14 -7 -20 -7 -20 0 0
5 7 10 15 10 8 0 15 4 15 9 0 14 -30 7 -42 -10 -8 -11 -9 -11 -4 3 3 10 -1 24
-9 32 -8 8 -15 18 -15 22 0 4 3 4 7 1 8 -8 33 12 33 26 0 7 -4 7 -12 -1 -16
-16 -28 -15 -28 3 0 8 -4 15 -9 15 -5 0 -12 8 -15 17 -6 15 -5 15 13 -1 18
-16 20 -16 29 0 6 11 11 13 16 5 4 -6 13 -11 19 -11 7 1 2 9 -10 19 -13 11
-23 22 -23 26 0 9 28 -12 52 -39z m130 9 c1 -11 7 -23 11 -26 5 -3 1 -9 -8
-12 -10 -5 -14 -3 -9 5 5 7 3 8 -6 3 -9 -5 -11 -4 -6 3 5 8 2 10 -8 6 -13 -5
-12 -9 7 -24 l22 -19 -22 2 c-13 1 -24 4 -24 7 -8 33 -5 48 10 42 14 -5 14 -4
1 14 -14 18 -14 18 4 4 18 -14 18 -13 11 10 -5 17 -4 22 3 15 6 -5 12 -19 14
-30z m-645 -27 c2 -17 0 -19 -7 -8 -5 8 -6 18 -4 22 8 12 10 10 11 -14z m-660
-2 c0 -19 -34 -39 -43 -24 -5 7 -3 8 5 4 8 -5 14 0 18 13 6 23 20 29 20 7z
m48 -14 c-3 -3 -11 0 -18 7 -9 10 -8 11 6 5 10 -3 15 -9 12 -12z m584 4 c9
-11 9 -16 -1 -22 -7 -4 -10 -4 -6 1 4 4 3 14 -3 22 -6 7 -9 13 -6 13 2 0 10
-6 16 -14z m-980 -19 c-8 -13 -14 -16 -21 -9 -13 13 -4 29 16 29 12 0 13 -5 5
-20z m213 14 c4 -1 23 -16 41 -35 l34 -34 -19 -23 -19 -24 12 24 c10 22 9 27
-11 43 -12 10 -18 18 -14 18 5 1 -2 7 -15 14 -14 8 -30 12 -37 9 -7 -2 -14 0
-18 5 -4 7 3 8 46 3z m66 -4 c13 5 14 3 5 -7 -13 -14 -33 -5 -32 13 0 9 2 9 5
0 3 -7 13 -9 22 -6z m145 -2 c-3 -9 -8 -14 -10 -11 -3 3 -2 9 2 15 9 16 15 13
8 -4z m82 5 c-3 -5 -1 -10 6 -10 7 0 10 -3 6 -6 -9 -9 -28 6 -22 17 4 5 8 9
11 9 3 0 2 -4 -1 -10z m441 1 c-4 -5 0 -11 6 -14 7 -3 3 -4 -9 -4 -17 1 -19 4
-11 14 12 15 22 18 14 4z m491 -8 c2 -6 -5 -17 -16 -23 -14 -7 -21 -7 -21 0 0
5 7 10 15 10 21 0 19 17 -2 24 -15 4 -15 5 1 3 11 -1 21 -7 23 -14z m-1367 3
c0 -3 -4 -8 -10 -11 -5 -3 -10 -1 -10 4 0 6 5 11 10 11 6 0 10 -2 10 -4z m292
-18 c-7 -7 -12 -8 -12 -2 0 6 3 14 7 17 3 4 9 5 12 2 2 -3 -1 -11 -7 -17z
m108 18 c0 -3 -4 -8 -10 -11 -5 -3 -10 -1 -10 4 0 6 5 11 10 11 6 0 10 -2 10
-4z m77 -11 c0 -8 -4 -12 -9 -9 -5 3 -6 10 -3 15 9 13 12 11 12 -6z m487 0
c-4 -8 -10 -16 -15 -16 -5 -1 -13 -2 -18 -3 -5 0 -13 -4 -17 -8 -4 -5 -12 -8
-18 -8 -5 0 -1 6 9 14 11 8 23 12 26 10 4 -2 12 3 19 11 16 19 21 19 14 0z
m530 8 c3 -4 13 -8 21 -10 35 -7 41 -9 53 -16 7 -5 12 -4 12 2 0 6 5 11 12 11
9 0 9 -3 1 -11 -6 -6 -9 -19 -6 -28 4 -14 3 -14 -10 1 -8 10 -17 15 -20 11 -4
-3 2 -13 13 -20 11 -8 18 -19 15 -24 -4 -5 -1 -9 5 -9 6 0 9 -4 5 -9 -8 -14 9
-21 25 -11 15 9 62 -9 54 -21 -3 -5 -14 -4 -26 2 -15 8 -23 8 -32 -2 -8 -9 -8
-10 1 -5 7 4 21 2 32 -3 14 -8 22 -6 35 8 9 9 16 22 16 27 0 5 -4 4 -8 -3 -5
-8 -13 -8 -32 2 -14 8 -19 14 -12 15 6 0 12 5 12 11 0 8 -4 9 -13 0 -14 -11
-27 -5 -27 11 0 5 5 6 11 2 8 -4 8 0 0 15 -18 33 -3 27 50 -21 10 -10 20 -17
22 -17 7 5 47 -14 47 -22 0 -6 4 -7 10 -4 13 8 52 -14 45 -26 -4 -5 0 -9 7
-10 10 0 10 -2 1 -6 -9 -3 -10 -10 -3 -24 8 -14 7 -17 -3 -13 -8 3 -14 -2 -14
-11 0 -9 6 -14 12 -11 6 2 12 -2 12 -9 0 -10 -5 -11 -17 -5 -17 9 -30 4 -30
-11 0 -5 8 -6 18 -2 16 5 16 5 0 -8 -10 -8 -25 -23 -34 -34 -8 -11 -13 -14 -9
-7 12 24 15 62 5 62 -10 0 -14 -13 -11 -37 1 -6 -4 -15 -10 -19 -8 -5 -10 -2
-6 9 3 8 -1 21 -10 29 -14 11 -15 10 -9 -12 l8 -25 -17 23 c-17 23 -16 25 11
53 27 28 27 29 9 49 -11 12 -13 20 -6 20 6 0 14 -7 17 -15 4 -8 14 -15 23 -15
12 0 10 -5 -9 -20 -14 -11 -21 -20 -17 -20 5 0 20 9 34 20 14 11 30 17 37 13
7 -4 6 -1 -1 8 -10 12 -10 18 -1 27 9 9 9 12 1 12 -6 0 -13 -3 -16 -7 -2 -5
-2 -1 0 7 3 12 2 12 -8 3 -10 -10 -9 -15 1 -28 18 -22 -3 -18 -34 6 -26 21
-27 21 -49 3 -12 -11 -25 -23 -29 -29 -8 -10 -9 -7 -12 18 0 6 -8 12 -16 13
-25 2 -50 15 -45 24 3 5 -3 16 -12 26 -10 10 -18 20 -19 23 -3 19 -17 40 -24
36 -5 -3 -16 3 -26 12 -10 10 -21 18 -25 18 -4 0 -11 3 -15 8 -4 4 -1 7 8 7 8
0 18 -3 22 -7z m119 -7 c3 -7 4 -27 2 -42 -2 -16 1 -34 6 -40 6 -8 5 -14 -4
-17 -8 -3 -14 0 -15 6 0 7 -3 24 -5 40 -2 15 0 30 6 34 6 4 3 12 -8 20 -16 11
-16 13 -3 13 9 0 18 -6 21 -14z m-1826 -29 c3 1 9 7 14 14 6 10 12 10 27 -4
10 -9 21 -15 24 -12 3 3 8 -1 11 -9 4 -9 1 -18 -5 -22 -7 -5 -8 -2 -3 6 5 8 3
11 -6 8 -8 -3 -13 -14 -11 -24 2 -15 1 -16 -7 -4 -5 8 -8 17 -5 21 2 4 -4 13
-13 20 -15 12 -16 12 -11 -2 10 -26 -24 -12 -46 19 l-20 27 23 -20 c13 -11 25
-19 28 -18z m607 11 c4 7 13 12 19 12 7 0 4 -5 -5 -11 -9 -5 -15 -16 -12 -24
4 -8 11 -12 18 -8 6 3 2 -3 -8 -15 -21 -24 -11 -29 17 -8 16 12 16 15 3 29
-14 13 -14 16 -1 21 8 3 14 2 14 -2 -3 -20 2 -32 11 -27 6 4 8 12 4 18 -3 7 6
-1 20 -18 14 -16 22 -32 18 -35 -13 -9 -13 -32 0 -49 9 -11 6 -10 -10 3 -22
19 -22 19 -22 -2 0 -12 5 -21 12 -19 6 1 14 -6 16 -15 2 -10 -1 -18 -7 -18 -6
0 -8 7 -4 15 3 9 2 15 -3 14 -22 -4 -33 2 -28 16 5 11 2 13 -10 9 -9 -3 -13
-11 -9 -17 4 -6 1 -7 -7 -2 -8 5 -11 3 -8 -6 3 -8 13 -13 23 -11 10 2 14 -1
10 -7 -3 -6 -1 -11 4 -11 6 0 11 -5 11 -11 0 -6 -9 -4 -21 5 -22 15 -53 11
-43 -5 3 -5 -2 -6 -12 -2 -14 5 -14 7 5 18 12 6 19 14 15 18 -4 3 -15 2 -25
-4 -15 -7 -17 -6 -13 5 3 9 9 15 12 14 19 -2 28 4 29 20 1 10 -5 19 -13 19 -9
0 -13 -6 -9 -15 4 -12 2 -12 -8 -4 -8 7 -18 8 -22 4 -5 -4 -5 -1 -1 6 4 6 3
12 -2 12 -5 0 -9 12 -8 27 0 14 -4 28 -11 30 -7 3 -10 -5 -9 -21 3 -26 -18
-27 -28 0 -3 8 -11 14 -19 14 -7 0 -19 6 -26 13 -6 6 -16 13 -21 13 -6 1 -16
2 -22 3 -9 1 -9 4 2 11 9 6 19 5 28 -2 10 -9 16 -8 23 3 8 10 9 9 4 -7 -8 -31
27 -38 60 -12 23 18 24 18 18 1 -6 -16 -5 -16 10 -5 9 8 13 21 10 30 -4 13 -3
13 9 -2 10 -13 17 -15 22 -8z m422 7 c-1 -8 -5 -17 -8 -21 -5 -4 -4 16 1 34 3
9 9 -1 7 -13z m165 -8 c-10 -9 -11 -8 -5 6 3 10 9 15 12 12 3 -3 0 -11 -7 -18z
m96 8 c0 -8 -4 -12 -9 -9 -5 3 -6 10 -3 15 9 13 12 11 12 -6z m-1453 -11 c3
-8 10 -13 15 -10 5 3 11 0 14 -8 8 -21 -27 -9 -41 15 -7 10 -8 19 -3 19 5 0
12 -7 15 -16z m532 -10 c13 -14 24 -30 24 -37 0 -7 -5 -4 -11 6 -6 9 -15 14
-21 11 -6 -4 -8 -3 -4 4 3 6 -1 18 -10 26 -8 9 -12 16 -8 16 4 0 17 -11 30
-26z m160 11 c-11 -8 -24 -15 -30 -15 -5 0 -1 7 10 15 10 8 24 14 29 14 6 0 1
-6 -9 -14z m180 0 c-3 -8 0 -15 6 -15 6 0 9 -3 5 -6 -10 -11 -26 6 -20 21 3 8
7 15 10 15 3 0 3 -7 -1 -15z m119 -3 c-3 -3 -11 0 -18 7 -9 10 -8 11 6 5 10
-3 15 -9 12 -12z m105 14 c0 -2 -7 -7 -16 -10 -8 -3 -12 -2 -9 4 6 10 25 14
25 6z m1326 -5 c-9 -14 20 -21 33 -8 6 6 11 7 11 2 0 -6 4 -4 9 4 8 12 12 13
25 1 9 -7 14 -15 11 -18 -3 -3 0 -11 6 -19 9 -9 8 -13 0 -13 -6 0 -11 5 -11
12 0 6 -7 3 -15 -8 -15 -19 -15 -19 -8 1 6 17 5 18 -9 7 -11 -9 -18 -10 -23
-2 -3 5 -11 10 -16 10 -6 0 -7 -5 -3 -12 5 -7 3 -8 -7 -2 -8 4 -24 9 -37 10
-13 0 -28 6 -33 11 -7 7 -2 10 15 8 14 -2 30 3 37 11 13 15 23 19 15 5z
m-2467 -56 c0 -5 -3 -4 -6 3 -2 7 -13 17 -24 22 -14 8 -17 7 -13 -3 6 -16 -17
-29 -33 -19 -12 8 -13 43 -1 36 4 -3 16 -1 25 5 14 8 22 5 35 -12 10 -12 17
-26 17 -32z m-136 31 c-3 -4 3 -5 14 -2 17 5 21 2 21 -20 0 -21 -2 -24 -10
-11 -4 9 -15 14 -23 11 -8 -4 -12 -11 -8 -18 3 -6 1 -6 -8 2 -20 18 -34 15
-18 -5 11 -13 8 -13 -13 2 -23 18 -25 22 -12 36 15 17 67 21 57 5z m679 -3
c-6 -3 -10 -9 -7 -14 4 -5 -1 -6 -10 -3 -14 6 -14 8 2 19 10 8 20 11 23 8 3
-3 -1 -8 -8 -10z m435 2 c0 -8 -4 -12 -9 -9 -4 3 -8 9 -8 15 0 5 4 9 8 9 5 0
9 -7 9 -15z m42 -19 c-3 -3 -11 5 -18 17 -13 21 -12 21 5 5 10 -10 16 -20 13
-22z m771 30 c0 -2 -7 -7 -16 -10 -8 -3 -12 -2 -9 4 6 10 25 14 25 6z m-528
-13 c-6 -2 -9 -10 -5 -16 3 -7 3 -9 -2 -5 -4 4 -13 3 -20 -2 -8 -7 -12 -5 -12
5 0 8 4 12 8 9 4 -2 10 0 14 6 3 5 12 10 18 9 9 0 8 -2 -1 -6z m232 -22 c-2
-3 -12 3 -22 13 -16 17 -16 18 5 5 12 -7 20 -15 17 -18z m-789 -19 c3 -7 -8
-4 -25 8 -17 12 -30 23 -30 25 0 9 50 -22 55 -33z m245 28 c0 -5 -8 -10 -17
-10 -15 0 -16 2 -3 10 19 12 20 12 20 0z m245 -9 c3 -5 2 -12 -3 -15 -5 -3 -9
1 -9 9 0 17 3 19 12 6z m179 1 c2 -4 -4 -8 -14 -8 -10 0 -16 4 -14 8 3 4 9 8
14 8 5 0 11 -4 14 -8z m-1397 -17 c0 -8 -4 -12 -9 -9 -5 3 -6 10 -3 15 9 13
12 11 12 -6z m123 11 c0 -2 -9 -6 -20 -9 -11 -3 -18 -1 -14 4 5 9 34 13 34 5z
m135 -6 c3 -5 1 -10 -4 -10 -6 0 -11 5 -11 10 0 6 2 10 4 10 3 0 8 -4 11 -10z
m102 -5 c0 -8 -4 -12 -9 -9 -5 3 -6 10 -3 15 9 13 12 11 12 -6z m243 5 c0 -5
-8 -6 -17 -3 -15 6 -16 4 -6 -8 10 -13 10 -16 -1 -16 -11 0 -14 12 -7 35 3 7
31 0 31 -8z m79 -13 c0 -9 -2 -8 -6 1 -2 6 -10 9 -15 6 -7 -4 -8 -2 -4 5 9 13
26 5 25 -12z m321 13 c0 -5 -4 -10 -10 -10 -5 0 -10 5 -10 10 0 6 5 10 10 10
6 0 10 -4 10 -10z m100 6 c0 -3 -4 -8 -10 -11 -5 -3 -10 -1 -10 4 0 6 5 11 10
11 6 0 10 -2 10 -4z m337 -2 c-3 -3 -12 -4 -19 -1 -8 3 -5 6 6 6 11 1 17 -2
13 -5z m477 -20 c3 -8 2 -12 -4 -9 -6 3 -10 10 -10 16 0 14 7 11 14 -7z m-944
-4 c0 -5 -2 -10 -4 -10 -3 0 -8 5 -11 10 -3 6 -1 10 4 10 6 0 11 -4 11 -10z
m1160 -80 c0 -5 -2 -10 -4 -10 -3 0 -8 5 -11 10 -3 6 -1 10 4 10 6 0 11 -4 11
-10z m-1333 -42 c-3 -8 -6 -5 -6 6 -1 11 2 17 5 13 3 -3 4 -12 1 -19z m63 7
c0 -8 -4 -15 -10 -15 -5 0 -7 7 -4 15 4 8 8 15 10 15 2 0 4 -7 4 -15z m-1184
-22 c4 4 2 7 -4 7 -7 0 -12 5 -12 12 0 6 7 4 18 -5 10 -10 19 -24 19 -32 0
-18 -14 -20 -20 -2 -3 9 -7 9 -20 -2 -17 -13 -14 -31 4 -31 6 0 7 6 3 13 -4 6
-3 8 1 4 5 -4 10 -14 11 -22 2 -12 -2 -12 -17 -5 -11 7 -19 7 -19 1 0 -5 6
-11 13 -14 6 -2 9 -7 6 -11 -3 -3 -14 2 -25 13 -23 21 -24 61 -3 83 12 14 15
14 26 -1 6 -9 15 -13 19 -8z m1246 20 c-9 -3 -10 -9 -3 -17 8 -9 6 -12 -9 -11
-11 1 -23 5 -27 10 -5 4 -3 5 3 2 7 -4 14 0 18 8 3 8 11 15 18 14 10 0 10 -2
0 -6z m-88 -21 c3 -5 -1 -9 -9 -9 -8 0 -12 4 -9 9 3 4 7 8 9 8 2 0 6 -4 9 -8z
m41 -12 c3 -6 -1 -7 -9 -4 -18 7 -21 14 -7 14 6 0 13 -4 16 -10z m1236 -32
c-10 -11 -11 -9 -5 6 6 15 4 17 -6 11 -9 -6 -11 -4 -5 4 5 9 10 10 18 2 8 -8
7 -14 -2 -23z m140 9 c-10 -9 -11 -8 -5 6 3 10 9 15 12 12 3 -3 0 -11 -7 -18z
m629 -9 c0 -19 -16 -5 -17 14 -2 18 0 20 7 8 5 -8 10 -18 10 -22z m-2003 -10
c1 -10 -3 -18 -9 -18 -6 0 -8 3 -5 7 4 3 2 11 -3 18 -7 8 -6 12 3 12 7 0 14
-9 14 -19z m43 16 c0 -8 -19 -13 -24 -6 -3 5 1 9 9 9 8 0 15 -2 15 -3z m1248
-29 c3 -3 -5 -4 -19 -1 -13 2 -31 -2 -39 -8 -13 -9 -13 -9 -2 6 12 15 46 17
60 3z m106 5 c-8 -7 -64 -6 -64 2 0 4 15 6 34 5 19 -1 32 -4 30 -7z m723 -33
c1 -11 1 -18 0 -16 -2 2 -8 11 -15 20 -9 12 -9 16 1 16 7 0 14 -9 14 -20z
m-3394 -2 c-3 -9 -8 -14 -10 -11 -3 3 -2 9 2 15 9 16 15 13 8 -4z m2597 -5 c0
-5 -2 -10 -4 -10 -3 0 -8 5 -11 10 -3 6 -1 10 4 10 6 0 11 -4 11 -10z m38 -45
c-3 -3 -9 2 -12 12 -6 14 -5 15 5 6 7 -7 10 -15 7 -18z m729 9 c-3 -3 -12 -4
-19 -1 -8 3 -5 6 6 6 11 1 17 -2 13 -5z m8 -23 c3 -5 2 -12 -3 -15 -5 -3 -9 1
-9 9 0 17 3 19 12 6z m-3344 -28 c13 -17 13 -17 -6 -3 -11 8 -22 16 -24 17 -2
2 0 3 6 3 6 0 17 -8 24 -17z m2600 -46 c-10 -9 -11 -8 -5 6 3 10 9 15 12 12 3
-3 0 -11 -7 -18z m1039 -177 c0 -5 -5 -10 -11 -10 -5 0 -7 5 -4 10 3 6 8 10
11 10 2 0 4 -4 4 -10z m-358 -51 c2 -2 1 -3 -1 -2 -2 2 -9 -2 -16 -7 -8 -7
-12 -5 -12 4 0 12 22 16 29 5z m-2117 -19 c3 -5 1 -10 -4 -10 -6 0 -11 5 -11
10 0 6 2 10 4 10 3 0 8 -4 11 -10z m-57 -25 c-3 -3 -9 2 -12 12 -6 14 -5 15 5
6 7 -7 10 -15 7 -18z m137 15 c3 -6 -1 -7 -9 -4 -18 7 -21 14 -7 14 6 0 13 -4
16 -10z m1835 -28 c-7 -3 -4 -10 7 -18 13 -11 14 -14 3 -12 -8 2 -18 8 -22 13
-5 6 -8 4 -8 -4 0 -11 -3 -10 -13 3 -13 17 -14 17 -28 0 -12 -16 -12 -17 3
-11 10 3 20 1 24 -5 4 -6 3 -8 -3 -5 -5 3 -10 1 -10 -6 0 -7 -4 -21 -8 -32 -5
-15 -4 -17 3 -6 14 20 45 24 38 5 -7 -19 -4 -18 17 6 17 20 16 20 -9 16 -17
-3 -24 -1 -21 7 2 7 10 12 18 13 24 1 50 -16 43 -28 -4 -6 -3 -8 4 -4 5 3 12
3 15 -1 2 -5 2 -3 1 4 -2 6 0 14 4 16 4 2 2 2 -5 1 -15 -4 -41 37 -36 54 3 8
11 4 24 -12 10 -13 35 -34 55 -45 30 -18 35 -19 30 -5 -4 12 -2 15 9 10 10 -3
15 1 15 13 0 17 22 34 35 28 2 -1 11 7 20 18 10 12 13 14 8 3 -11 -23 -184
-208 -204 -219 -13 -7 -29 3 -70 43 -30 28 -49 49 -44 46 6 -3 11 5 11 18 2
22 0 23 -10 9 -11 -15 -13 -15 -29 2 -16 18 -15 19 11 19 16 -1 26 4 25 12 -2
6 2 11 9 10 7 -2 13 3 14 10 1 6 3 15 4 20 1 4 2 16 1 27 l-1 20 9 -20 c5 -11
10 -16 10 -11 1 5 7 3 14 -3 8 -6 17 -8 20 -4 10 9 9 25 -1 19 -5 -3 -9 1 -9
9 0 12 4 12 19 -2 12 -11 15 -19 8 -21z m170 19 c0 -6 -4 -12 -8 -15 -5 -3 -9
1 -9 9 0 8 4 15 9 15 4 0 8 -4 8 -9z m-3045 -10 c3 -5 2 -12 -3 -15 -5 -3 -9
1 -9 9 0 17 3 19 12 6z m325 5 c0 -2 -8 -10 -17 -17 -16 -13 -17 -12 -4 4 13
16 21 21 21 13z m1960 -20 c0 -2 -8 -10 -17 -17 -16 -13 -17 -12 -4 4 13 16
21 21 21 13z m-1950 -10 c0 -2 -7 -7 -16 -10 -8 -3 -12 -2 -9 4 6 10 25 14 25
6z m-333 -30 c14 18 15 18 8 -6 -7 -22 -6 -23 8 -12 9 8 18 9 21 3 3 -5 17 -8
31 -6 14 1 28 -2 31 -6 3 -5 10 -9 15 -9 6 0 8 4 5 8 -2 4 6 8 20 8 34 0 11
-21 -24 -22 -19 0 -27 -5 -26 -17 2 -23 -5 -21 -28 9 -20 24 -21 25 -41 7 -11
-10 -17 -13 -14 -6 11 18 -12 27 -29 12 -16 -13 -44 -21 -44 -13 0 3 12 9 26
14 14 6 22 15 18 21 -5 8 -9 8 -14 -1 -6 -10 -12 -10 -26 0 -17 10 -17 11 -1
6 11 -4 20 0 24 10 5 14 7 14 16 -2 9 -16 11 -16 24 2z m2209 -8 c5 4 3 0 -4
-9 -7 -9 -9 -25 -6 -35 10 -28 -10 -4 -24 29 -11 25 -10 27 7 18 10 -6 22 -7
27 -3z m-811 -8 c3 -5 1 -10 -4 -10 -6 0 -11 5 -11 10 0 6 2 10 4 10 3 0 8 -4
11 -10z m110 0 c-3 -5 -12 -10 -18 -10 -7 0 -6 4 3 10 19 12 23 12 15 0z m63
-15 c-3 -3 -9 2 -12 12 -6 14 -5 15 5 6 7 -7 10 -15 7 -18z m-1374 3 c-3 -4 0
-8 6 -8 6 0 8 -4 5 -10 -3 -5 -11 -10 -17 -10 -6 0 -8 3 -5 7 4 3 2 11 -3 18
-7 8 -5 12 5 12 8 0 12 -4 9 -9z m532 -19 c1 -13 0 -18 -3 -11 -4 10 -11 8
-28 -8 -15 -14 -25 -18 -30 -11 -3 6 0 11 7 11 18 0 49 37 37 44 -5 2 -4 3 2
2 7 -1 13 -13 15 -27z m572 25 c-4 -3 3 -15 14 -26 13 -13 17 -23 10 -30 -15
-15 -36 0 -22 17 8 9 6 14 -5 19 -15 5 -13 26 2 26 4 0 4 -3 1 -6z m39 -1 c-4
-3 0 -15 10 -25 9 -10 12 -18 7 -18 -12 0 -34 36 -27 44 4 3 9 6 11 6 3 0 2
-3 -1 -7z m518 -2 c3 -5 0 -13 -6 -17 -7 -4 -9 -3 -5 4 3 5 0 13 -6 15 -9 4
-10 6 -1 6 6 1 14 -3 18 -8z m81 0 c-3 -5 1 -11 9 -15 8 -3 15 -1 15 4 0 6 5
10 11 10 8 0 8 -4 -1 -15 -9 -11 -17 -12 -31 -4 -17 8 -18 29 -3 29 3 0 3 -4
0 -9z m219 -1 c3 -5 1 -10 -4 -10 -6 0 -11 5 -11 10 0 6 2 10 4 10 3 0 8 -4
11 -10z m240 -19 c-9 -16 -25 -3 -18 15 4 10 9 12 15 6 6 -6 7 -15 3 -21z
m-655 9 c0 -5 -2 -10 -4 -10 -3 0 -8 5 -11 10 -3 6 -1 10 4 10 6 0 11 -4 11
-10z m35 0 c-3 -5 -12 -10 -18 -10 -7 0 -6 4 3 10 19 12 23 12 15 0z m-1895
-16 c0 -8 -19 -13 -24 -6 -3 5 1 9 9 9 8 0 15 -2 15 -3z m2127 -8 c-4 -10 0
-12 16 -8 20 5 20 4 8 -11 -11 -14 -17 -15 -28 -5 -12 10 -18 8 -32 -10 -11
-15 -23 -21 -34 -16 -24 9 -21 16 16 41 37 25 62 29 54 9z m-273 -42 c3 -8 2
-12 -4 -9 -6 3 -10 10 -10 16 0 14 7 11 14 -7z"/>
<path d="M3256 3062 c-3 -5 1 -9 9 -9 8 0 12 4 9 9 -3 4 -7 8 -9 8 -2 0 -6 -4
-9 -8z"/>
<path d="M3261 3037 c2 -1 13 -9 24 -17 19 -14 19 -14 6 3 -7 9 -18 17 -24 17
-6 0 -8 -1 -6 -3z"/>
<path d="M3330 3000 c0 -5 5 -10 11 -10 5 0 7 5 4 10 -3 6 -8 10 -11 10 -2 0
-4 -4 -4 -10z"/>
<path d="M3295 2980 c-3 -5 -1 -10 4 -10 6 0 11 5 11 10 0 6 -2 10 -4 10 -3 0
-8 -4 -11 -10z"/>
<path d="M3270 2921 c0 -6 9 -9 19 -8 11 0 17 5 15 9 -7 11 -34 10 -34 -1z"/>
<path d="M3407 2919 c7 -7 15 -10 18 -7 3 3 -2 9 -12 12 -14 6 -15 5 -6 -5z"/>
<path d="M3348 2865 c-25 -34 -22 -43 3 -11 12 15 20 29 18 31 -2 1 -12 -7
-21 -20z"/>
<path d="M3280 2868 c0 -14 18 -17 28 -5 8 10 6 13 -9 13 -10 0 -19 -4 -19 -8z"/>
<path d="M3375 2860 c-3 -5 -1 -10 4 -10 6 0 11 5 11 10 0 6 -2 10 -4 10 -3 0
-8 -4 -11 -10z"/>
<path d="M3946 2343 c-11 -11 25 -42 42 -35 15 5 15 3 4 -10 -9 -11 -10 -18
-2 -23 6 -3 8 -11 4 -16 -3 -5 0 -8 8 -7 7 2 12 -5 12 -14 -1 -10 2 -18 6 -18
5 0 16 -7 24 -16 9 -8 16 -11 16 -5 0 5 -4 12 -9 15 -5 3 -7 16 -3 28 4 18 2
20 -14 14 -10 -4 -15 -4 -11 0 4 4 0 16 -9 25 -16 17 -16 19 0 25 9 3 16 11
16 17 0 8 -4 7 -12 -1 -8 -8 -18 -6 -38 8 -15 11 -30 17 -34 13z m25 -20 c13
-16 12 -17 -3 -4 -17 13 -22 21 -14 21 2 0 10 -8 17 -17z m40 -50 c13 -16 12
-17 -3 -4 -17 13 -22 21 -14 21 2 0 10 -8 17 -17z"/>
<path d="M3980 2346 c0 -2 7 -7 16 -10 8 -3 12 -2 9 4 -6 10 -25 14 -25 6z"/>
<path d="M4060 2340 c-9 -6 -10 -10 -3 -10 6 0 15 5 18 10 8 12 4 12 -15 0z"/>
<path d="M4055 2300 c3 -5 8 -10 11 -10 2 0 4 5 4 10 0 6 -5 10 -11 10 -5 0
-7 -4 -4 -10z"/>
<path d="M4027 2284 c3 -7 9 -14 14 -14 14 0 10 17 -5 23 -10 4 -13 1 -9 -9z"/>
<path d="M4146 2222 c-3 -5 1 -9 9 -9 8 0 12 4 9 9 -3 4 -7 8 -9 8 -2 0 -6 -4
-9 -8z"/>
<path d="M4150 2180 c-13 -8 -12 -10 3 -10 9 0 17 5 17 10 0 12 -1 12 -20 0z"/>
<path d="M4193 2156 c1 -11 9 -21 17 -23 10 -3 11 -2 4 4 -6 4 -14 15 -17 23
-5 11 -6 9 -4 -4z"/>
<path d="M4260 2126 c0 -2 8 -10 18 -17 15 -13 16 -12 3 4 -13 16 -21 21 -21
13z"/>
<path d="M2015 3361 c-3 -5 -2 -12 3 -15 5 -3 9 1 9 9 0 17 -3 19 -12 6z"/>
<path d="M2231 3337 c-8 -10 -7 -14 2 -14 8 0 14 6 14 14 0 7 -1 13 -2 13 -2
0 -8 -6 -14 -13z"/>
<path d="M2270 3327 c0 -2 6 -10 14 -16 11 -9 16 -9 22 1 4 7 4 10 -1 6 -4 -4
-14 -3 -22 3 -7 6 -13 9 -13 6z"/>
<path d="M2880 3320 c18 -12 30 -13 30 -2 0 4 -10 9 -22 9 -18 2 -20 0 -8 -7z"/>
<path d="M1570 2999 c0 -7 25 -19 41 -19 4 0 6 6 3 14 -5 14 -44 18 -44 5z"/>
<path d="M1535 2850 c-8 -13 9 -20 24 -11 10 6 9 10 -3 14 -8 3 -18 2 -21 -3z"/>
<path d="M3410 2720 c0 -5 5 -10 11 -10 5 0 7 5 4 10 -3 6 -8 10 -11 10 -2 0
-4 -4 -4 -10z"/>
<path d="M3431 2701 c-8 -5 -21 -6 -30 -3 -14 5 -14 4 -1 -9 8 -8 24 -21 35
-28 19 -14 19 -14 2 4 -16 18 -16 20 5 32 13 7 19 12 13 12 -5 1 -16 -3 -24
-8z"/>
<path d="M3461 2657 c2 -1 13 -9 24 -17 19 -14 19 -14 6 3 -7 9 -18 17 -24 17
-6 0 -8 -1 -6 -3z"/>
<path d="M3455 2620 c-5 -9 -4 -11 3 -6 7 4 12 3 12 -3 0 -6 8 -15 18 -20 14
-7 18 -6 18 10 0 12 -4 15 -10 9 -6 -6 -14 -3 -21 7 -10 13 -14 13 -20 3z"/>
<path d="M3536 2593 c-6 -14 -5 -15 5 -6 7 7 10 15 7 18 -3 3 -9 -2 -12 -12z"/>
<path d="M3430 2581 c0 -6 5 -11 11 -11 6 0 3 -7 -5 -16 -19 -18 -8 -46 18
-50 14 -2 15 0 5 12 -12 15 0 20 17 6 5 -4 8 -5 6 -3 -1 2 5 16 14 30 9 14 11
21 4 14 -10 -10 -19 -8 -42 8 -15 11 -28 16 -28 10z m49 -42 c4 -12 2 -12 -12
0 -11 9 -17 10 -17 2 0 -6 -5 -11 -11 -11 -8 0 -7 5 1 15 15 18 32 15 39 -6z"/>
<path d="M3555 2560 c3 -5 8 -10 11 -10 2 0 4 5 4 10 0 6 -5 10 -11 10 -5 0
-7 -4 -4 -10z"/>
<path d="M3336 2538 c3 -4 11 -5 19 -1 21 7 19 12 -4 10 -11 0 -18 -5 -15 -9z"/>
<path d="M3380 2536 c0 -3 9 -10 20 -16 11 -6 20 -8 20 -6 0 3 -9 10 -20 16
-11 6 -20 8 -20 6z"/>
<path d="M2925 2569 c-11 -17 1 -21 15 -4 8 9 8 15 2 15 -6 0 -14 -5 -17 -11z"/>
<path d="M2942 2527 c-12 -14 -4 -31 15 -34 17 -3 24 24 9 36 -10 8 -16 8 -24
-2z m22 -5 c3 -5 -1 -9 -9 -9 -8 0 -12 4 -9 9 3 4 7 8 9 8 2 0 6 -4 9 -8z"/>
<path d="M3055 2469 c-4 -6 -13 -8 -21 -5 -8 3 -11 0 -7 -10 4 -10 9 -12 18
-4 6 5 14 8 17 5 2 -3 5 2 5 10 0 18 -3 19 -12 4z"/>
<path d="M3073 2416 c5 -15 24 -18 24 -3 0 8 -6 14 -14 14 -7 0 -12 -5 -10
-11z"/>
<path d="M3170 2344 c0 -5 4 -15 9 -22 6 -10 11 -9 22 5 7 10 9 15 5 11 -5 -4
-15 -3 -23 3 -7 6 -13 8 -13 3z"/>
<path d="M3250 2431 c0 -5 7 -15 17 -22 15 -13 15 -12 4 9 -12 23 -21 28 -21
13z"/>
<path d="M3286 2339 c-14 -11 -30 -18 -35 -15 -5 3 -15 -2 -22 -12 -7 -9 -9
-14 -5 -10 5 4 16 2 24 -5 9 -6 13 -7 10 -2 -4 6 2 16 13 23 15 10 19 10 19 0
0 -17 23 7 26 27 3 19 2 19 -30 -6z"/>
<path d="M1340 2516 c0 -2 8 -10 18 -17 15 -13 16 -12 3 4 -13 16 -21 21 -21
13z"/>
<path d="M1895 2497 c-10 -11 -11 -21 -7 -54 1 -6 11 -11 21 -10 14 1 17 5 11
12 -6 7 -6 15 0 21 7 7 6 16 -2 26 -10 13 -15 14 -23 5z m11 -31 c0 -14 -5
-21 -9 -17 -4 4 -5 15 -1 24 9 24 12 21 10 -7z"/>
<path d="M1979 2472 c-8 -11 -18 -19 -24 -18 -5 0 -10 -11 -10 -25 -1 -27 -1
-27 31 -11 24 11 31 20 29 39 -3 33 -11 37 -26 15z m12 -15 c-6 -8 -7 -18 -3
-22 4 -5 1 -5 -6 -1 -10 6 -10 11 -1 22 6 8 14 14 16 14 3 0 0 -6 -6 -13z
m-27 -23 c3 -8 2 -12 -4 -9 -6 3 -10 10 -10 16 0 14 7 11 14 -7z"/>
<path d="M3556 2502 c-3 -5 1 -9 9 -9 8 0 12 4 9 9 -3 4 -7 8 -9 8 -2 0 -6 -4
-9 -8z"/>
<path d="M3604 2498 c-2 -3 0 -9 5 -12 5 -4 12 -2 16 4 4 6 10 8 15 5 5 -3 11
-1 15 5 4 6 -5 9 -20 8 -15 -2 -29 -6 -31 -10z"/>
<path d="M1035 2480 c4 -6 11 -8 16 -5 14 9 11 15 -7 15 -8 0 -12 -5 -9 -10z"/>
<path d="M947 2485 c3 -8 9 -12 14 -9 12 7 11 11 -5 17 -10 4 -13 1 -9 -8z"/>
<path d="M720 2300 c-11 -7 -11 -10 -2 -10 8 0 10 -5 6 -12 -5 -9 -3 -9 9 1 9
7 14 17 11 22 -6 11 -6 11 -24 -1z"/>
<path d="M3820 1776 c0 -2 8 -10 18 -17 15 -13 16 -12 3 4 -13 16 -21 21 -21
13z"/>
<path d="M3969 1763 c-13 -16 -12 -17 4 -4 9 7 17 15 17 17 0 8 -8 3 -21 -13z"/>
<path d="M3720 1725 c-7 -9 -8 -15 -2 -15 5 0 12 7 16 15 3 8 4 15 2 15 -2 0
-9 -7 -16 -15z"/>
<path d="M3720 1691 c0 -6 4 -13 10 -16 6 -3 7 1 4 9 -7 18 -14 21 -14 7z"/>
<path d="M3796 1658 c3 -4 11 -5 19 -1 21 7 19 12 -4 10 -11 0 -18 -5 -15 -9z"/>
<path d="M990 1696 c7 -7 13 -7 20 0 6 6 3 10 -10 10 -13 0 -16 -4 -10 -10z"/>
<path d="M2905 1670 c-3 -6 1 -7 9 -4 18 7 21 14 7 14 -6 0 -13 -4 -16 -10z"/>
<path d="M2876 1643 c-6 -14 -5 -15 5 -6 7 7 10 15 7 18 -3 3 -9 -2 -12 -12z"/>
<path d="M2756 3422 c-3 -4 4 -9 15 -9 23 -2 25 3 4 10 -8 4 -16 3 -19 -1z"/>
<path d="M1919 3408 c15 -21 31 -23 31 -6 0 6 -3 8 -7 5 -3 -4 -13 -1 -22 6
-14 11 -14 10 -2 -5z"/>
<path d="M2090 3398 c0 -11 12 -10 30 2 12 7 10 9 -8 7 -12 0 -22 -5 -22 -9z"/>
<path d="M2215 3400 c-3 -5 -1 -10 4 -10 6 0 11 5 11 10 0 6 -2 10 -4 10 -3 0
-8 -4 -11 -10z"/>
<path d="M2250 3406 c0 -2 7 -7 16 -10 8 -3 12 -2 9 4 -6 10 -25 14 -25 6z"/>
<path d="M2821 3396 c-8 -10 -9 -16 -1 -21 6 -4 9 -1 8 7 -2 7 3 12 10 10 8
-1 11 2 7 8 -8 13 -10 13 -24 -4z"/>
<path d="M2920 3400 c-9 -6 -10 -10 -3 -10 6 0 15 5 18 10 8 12 4 12 -15 0z"/>
<path d="M2773 3385 c0 -8 4 -12 9 -9 5 3 6 10 3 15 -9 13 -12 11 -12 -6z"/>
<path d="M2257 3379 c7 -7 15 -10 18 -7 3 3 -2 9 -12 12 -14 6 -15 5 -6 -5z"/>
<path d="M2290 3379 c0 -5 5 -7 10 -4 6 3 10 8 10 11 0 2 -4 4 -10 4 -5 0 -10
-5 -10 -11z"/>
<path d="M2332 3385 c3 -3 16 -8 28 -10 12 -2 20 -1 16 2 -4 4 -16 8 -28 10
-12 2 -19 1 -16 -2z"/>
<path d="M2850 3380 c-9 -6 -10 -10 -3 -10 6 0 15 5 18 10 8 12 4 12 -15 0z"/>
<path d="M2674 3363 c3 -20 -14 -53 -27 -53 -4 0 -5 5 -1 12 4 7 3 8 -5 4 -6
-4 -9 -11 -6 -16 3 -5 -2 -13 -11 -18 -10 -6 -12 -12 -6 -16 5 -3 13 1 16 10
3 8 10 13 15 9 5 -3 12 4 16 15 4 11 11 18 16 14 6 -4 6 -11 -1 -19 -15 -18
11 -15 34 4 17 14 23 36 7 27 -5 -4 -12 0 -15 6 -3 7 -3 2 1 -12 5 -22 4 -23
-10 -12 -9 7 -14 22 -12 32 2 11 0 22 -5 25 -4 3 -7 -3 -6 -12z"/>
<path d="M2718 3373 c7 -3 16 -2 19 1 4 3 -2 6 -13 5 -11 0 -14 -3 -6 -6z"/>
<path d="M1772 3355 c3 -21 -8 -23 -47 -11 -15 5 -15 4 3 -5 12 -7 22 -16 22
-21 0 -12 -14 -10 -30 5 -12 10 -12 9 0 -6 7 -10 20 -15 28 -12 8 3 20 1 27
-5 19 -16 58 9 44 26 -6 7 -18 10 -26 7 -9 -4 -14 -2 -10 3 3 6 1 16 -4 24 -8
12 -9 11 -7 -5z m26 -33 c15 12 16 11 3 -4 -14 -19 -32 -15 -30 5 0 8 2 8 6
-1 4 -10 8 -10 21 0z"/>
<path d="M1795 3360 c3 -5 8 -10 11 -10 2 0 4 5 4 10 0 6 -5 10 -11 10 -5 0
-7 -4 -4 -10z"/>
<path d="M2310 3358 c0 -4 4 -8 9 -8 6 0 12 4 15 8 3 5 -1 9 -9 9 -8 0 -15 -4
-15 -9z"/>
<path d="M2426 3358 c3 -5 10 -6 15 -3 13 9 11 12 -6 12 -8 0 -12 -4 -9 -9z"/>
<path d="M2973 3362 c-9 -5 -6 -12 10 -21 19 -13 21 -12 10 1 -7 8 -10 18 -6
21 9 9 1 8 -14 -1z"/>
<path d="M2395 3351 c-6 -11 13 -26 22 -17 4 3 1 6 -6 6 -7 0 -9 5 -6 10 3 6
4 10 1 10 -3 0 -7 -4 -11 -9z"/>
<path d="M3052 3338 c2 -7 -2 -12 -9 -11 -7 2 -10 -4 -6 -13 3 -8 6 -14 7 -12
1 2 7 10 14 20 9 11 10 18 2 23 -6 4 -9 1 -8 -7z"/>
<path d="M2597 3334 c-3 -3 -3 -12 0 -20 4 -10 0 -13 -13 -8 -15 5 -16 4 -4
-4 18 -14 29 -7 27 18 -1 22 -1 22 -10 14z"/>
<path d="M1673 3315 c0 -8 4 -15 9 -15 4 0 8 4 8 9 0 6 -4 12 -8 15 -5 3 -9
-1 -9 -9z"/>
<path d="M1860 3320 c0 -5 5 -10 11 -10 5 0 7 5 4 10 -3 6 -8 10 -11 10 -2 0
-4 -4 -4 -10z"/>
<path d="M3079 3313 c-13 -16 -12 -17 4 -4 16 13 21 21 13 21 -2 0 -10 -8 -17
-17z"/>
<path d="M2395 3304 c-12 -12 -13 -19 -4 -30 11 -14 29 -10 29 6 0 5 -8 7 -17
4 -13 -4 -11 0 6 15 13 12 19 21 13 21 -6 0 -18 -7 -27 -16z"/>
<path d="M2435 3299 c-11 -16 -1 -19 13 -3 7 8 8 14 3 14 -5 0 -13 -5 -16 -11z"/>
<path d="M3104 3275 c-9 -14 -19 -23 -23 -21 -4 3 -12 1 -19 -3 -8 -5 1 -19
28 -46 25 -24 40 -34 41 -25 0 8 2 23 4 33 2 10 -1 14 -7 10 -7 -4 -9 2 -6 15
4 12 2 20 -3 16 -5 -3 -9 -13 -9 -22 0 -12 -3 -13 -11 -5 -8 8 -7 17 3 32 8
12 17 19 20 16 2 -3 5 2 5 10 0 21 -4 19 -23 -10z m5 -61 c21 -3 22 -4 16 -15
-8 -12 -55 27 -55 45 0 5 6 1 14 -10 8 -10 19 -20 25 -20z"/>
<path d="M1630 3285 c0 -5 5 -17 10 -25 5 -8 10 -10 10 -5 0 6 -5 17 -10 25
-5 8 -10 11 -10 5z"/>
<path d="M1621 3244 c0 -11 3 -14 6 -6 3 7 2 16 -1 19 -3 4 -6 -2 -5 -13z"/>
<path d="M1599 3248 c-5 -18 -6 -38 -1 -34 7 8 12 36 6 36 -2 0 -4 -1 -5 -2z"/>
<path d="M3144 3242 c4 -3 14 -7 22 -8 9 -1 13 0 10 4 -4 3 -14 7 -22 8 -9 1
-13 0 -10 -4z"/>
<path d="M2474 3218 c-4 -6 -3 -8 4 -4 6 3 15 -1 20 -10 5 -9 14 -15 20 -13 5
2 0 12 -13 22 -17 12 -26 14 -31 5z"/>
<path d="M1584 3105 c-13 -20 -22 -24 -47 -19 -17 3 -29 2 -25 -1 12 -12 57
-15 64 -4 4 8 9 7 15 -2 6 -11 11 -11 21 -1 9 9 9 12 -5 12 -9 0 -17 5 -17 10
0 6 5 9 11 8 6 -2 14 3 16 10 8 22 -16 13 -33 -13z"/>
<path d="M1540 3031 c0 -6 -9 -8 -20 -6 -11 2 -22 0 -24 -4 -3 -4 7 -7 21 -6
15 0 28 6 31 13 2 7 1 12 -2 12 -3 0 -6 -4 -6 -9z"/>
<path d="M1476 2942 c-3 -5 1 -9 9 -9 8 0 12 4 9 9 -3 4 -7 8 -9 8 -2 0 -6 -4
-9 -8z"/>
<path d="M1515 2890 c-4 -6 -11 -8 -16 -5 -5 4 -9 1 -9 -4 0 -16 16 -13 30 4
7 8 10 15 7 15 -3 0 -9 -5 -12 -10z"/>
<path d="M1484 2814 c-18 -14 -18 -15 4 -4 12 6 22 13 22 15 0 8 -5 6 -26 -11z"/>
<path d="M1553 2765 c0 -8 6 -16 13 -19 7 -3 10 2 7 15 -6 22 -20 26 -20 4z"/>
<path d="M1430 2766 c0 -2 7 -7 16 -10 8 -3 12 -2 9 4 -6 10 -25 14 -25 6z"/>
<path d="M1480 2715 c-7 -8 -17 -12 -23 -8 -6 3 -7 1 -3 -5 8 -14 33 -5 40 14
7 18 2 18 -14 -1z"/>
<path d="M1540 2722 c0 -5 7 -15 15 -22 8 -7 15 -9 15 -6 0 4 -7 14 -15 22 -8
9 -15 11 -15 6z"/>
<path d="M1490 2680 c0 -5 5 -10 10 -10 6 0 10 5 10 10 0 6 -4 10 -10 10 -5 0
-10 -4 -10 -10z"/>
<path d="M1450 2641 c0 -6 4 -13 10 -16 6 -3 7 1 4 9 -7 18 -14 21 -14 7z"/>
<path d="M1490 2611 c0 -7 -4 -9 -10 -6 -5 3 -10 1 -10 -4 0 -6 4 -11 9 -11
13 0 25 20 17 27 -3 4 -6 1 -6 -6z"/>
<path d="M1500 2585 c-7 -9 -10 -18 -7 -21 3 -3 10 4 17 15 13 25 8 27 -10 6z"/>
<path d="M1015 2580 c-3 -5 -1 -10 4 -10 6 0 11 5 11 10 0 6 -2 10 -4 10 -3 0
-8 -4 -11 -10z"/>
<path d="M1096 2577 c3 -10 9 -15 12 -12 3 3 0 11 -7 18 -10 9 -11 8 -5 -6z"/>
<path d="M1215 2569 c-4 -6 -14 -8 -22 -4 -13 4 -14 3 -3 -10 7 -9 13 -14 14
-13 1 2 8 11 15 21 7 9 11 17 8 17 -3 0 -9 -5 -12 -11z"/>
<path d="M986 2555 c4 -8 11 -15 16 -15 6 0 5 6 -2 15 -7 8 -14 15 -16 15 -2
0 -1 -7 2 -15z"/>
<path d="M1245 2559 c-4 -6 -5 -12 -2 -15 2 -3 7 2 10 11 7 17 1 20 -8 4z"/>
<path d="M1298 2563 c6 -3 9 -9 6 -15 -4 -6 2 -5 15 1 27 15 27 16 -7 17 -15
1 -21 -1 -14 -3z"/>
<path d="M1576 2560 c4 -8 9 -21 10 -28 3 -20 14 -28 14 -11 0 12 2 12 10 -1
5 -8 11 -12 14 -9 3 3 -8 19 -26 35 -17 16 -27 22 -22 14z"/>
<path d="M935 2540 c3 -5 8 -10 11 -10 2 0 4 5 4 10 0 6 -5 10 -11 10 -5 0 -7
-4 -4 -10z"/>
<path d="M1223 2530 c2 -25 54 -59 54 -35 0 8 -4 13 -8 12 -4 -1 -16 9 -27 21
-21 24 -21 24 -19 2z"/>
<path d="M850 2520 c-9 -6 -10 -10 -3 -10 6 0 15 5 18 10 8 12 4 12 -15 0z"/>
<path d="M1474 2509 c-8 -14 30 -19 43 -6 11 11 9 13 -13 13 -14 0 -27 -3 -30
-7z"/>
<path d="M838 2487 c12 -7 19 -17 15 -22 -4 -4 -2 -5 5 -1 7 4 12 1 12 -9 0
-10 5 -13 12 -9 13 8 -34 54 -55 54 -7 -1 -2 -6 11 -13z"/>
<path d="M788 2473 c7 -3 16 -2 19 1 4 3 -2 6 -13 5 -11 0 -14 -3 -6 -6z"/>
<path d="M840 2439 c0 -5 5 -7 10 -4 6 3 10 8 10 11 0 2 -4 4 -10 4 -5 0 -10
-5 -10 -11z"/>
<path d="M710 2426 c0 -2 7 -7 16 -10 8 -3 12 -2 9 4 -6 10 -25 14 -25 6z"/>
<path d="M793 2385 c4 -5 -1 -17 -10 -28 -17 -20 -17 -20 0 -14 10 4 21 7 23
7 10 0 3 29 -8 36 -7 4 -10 3 -5 -1z"/>
<path d="M689 2323 c-13 -16 -12 -17 4 -4 9 7 17 15 17 17 0 8 -8 3 -21 -13z"/>
<path d="M655 2289 c-4 -6 -5 -12 -2 -15 2 -3 7 2 10 11 7 17 1 20 -8 4z"/>
<path d="M615 2242 c8 -9 55 -11 55 -3 0 4 -13 7 -30 7 -16 0 -28 -2 -25 -4z"/>
<path d="M655 2154 c18 -13 35 -11 35 5 0 5 -12 9 -27 9 -25 0 -25 -1 -8 -14z"/>
<path d="M565 2120 c10 -11 20 -20 23 -20 3 0 -3 9 -13 20 -10 11 -20 20 -23
20 -3 0 3 -9 13 -20z"/>
<path d="M636 2105 c16 -12 17 -14 2 -15 -9 0 -19 -9 -23 -19 -4 -13 -12 -18
-23 -15 -15 5 -15 5 0 -6 15 -9 16 -14 6 -30 -7 -10 -16 -16 -21 -13 -5 3 -4
-4 2 -16 9 -15 19 -20 37 -17 14 3 22 1 19 -5 -4 -5 -11 -6 -17 -3 -7 5 -9 1
-5 -9 3 -10 2 -17 -3 -17 -5 0 -6 -7 -3 -17 4 -10 2 -14 -4 -10 -16 10 -39
-21 -25 -35 8 -8 8 -17 1 -31 -8 -14 -8 -18 0 -13 6 4 11 2 11 -3 0 -6 5 -11
11 -11 5 0 8 4 5 9 -3 5 1 14 9 21 11 9 12 16 5 25 -8 9 -6 14 5 19 11 4 14
14 10 35 -3 16 -1 33 5 36 16 10 12 22 -10 28 -10 3 -21 0 -23 -7 -2 -6 -7 -8
-11 -5 -3 3 -4 13 0 22 5 13 10 14 26 6 16 -9 24 -7 36 5 15 15 11 19 -15 15
-11 -1 -25 30 -18 41 4 6 15 8 26 5 10 -4 19 -2 19 4 0 13 -29 41 -43 41 -6 0
-2 -7 9 -15z m8 -87 c-3 -4 -11 -5 -19 -1 -21 7 -19 12 4 10 11 0 18 -5 15 -9z
m-27 -116 c-12 -13 -13 -22 -6 -29 7 -7 5 -14 -6 -23 -10 -8 -15 -9 -15 -1 0
6 6 11 13 11 7 0 5 5 -5 11 -9 5 -15 16 -12 24 4 8 10 13 14 10 5 -3 11 -1 15
5 3 5 9 10 12 10 3 0 -1 -8 -10 -18z"/>
<path d="M568 1957 c11 -13 1 -40 -14 -37 -5 1 -10 -4 -12 -12 -3 -11 -2 -11
6 0 5 8 13 12 17 10 4 -1 15 8 24 22 9 14 11 21 4 16 -7 -4 -13 -2 -13 3 0 6
-5 11 -11 11 -8 0 -8 -4 -1 -13z"/>
<path d="M4353 1947 c0 -8 6 -14 14 -14 9 0 10 4 2 14 -6 7 -12 13 -14 13 -1
0 -2 -6 -2 -13z"/>
<path d="M4415 1921 c-3 -5 -2 -12 3 -15 5 -3 9 1 9 9 0 17 -3 19 -12 6z"/>
<path d="M4393 1876 c1 -6 -4 -10 -11 -8 -8 1 -11 -2 -7 -8 5 -8 13 -6 26 6
23 21 23 21 5 21 -8 0 -14 -5 -13 -11z"/>
<path d="M550 1860 c0 -5 5 -10 10 -10 6 0 10 5 10 10 0 6 -4 10 -10 10 -5 0
-10 -4 -10 -10z"/>
<path d="M4356 1842 c-3 -4 4 -9 15 -9 23 -2 25 3 4 10 -8 4 -16 3 -19 -1z"/>
<path d="M555 1810 c-3 -6 1 -7 9 -4 18 7 21 14 7 14 -6 0 -13 -4 -16 -10z"/>
<path d="M535 1780 c-2 -3 5 -6 15 -7 11 -1 22 2 24 5 3 4 -4 8 -15 8 -11 0
-22 -3 -24 -6z"/>
<path d="M4406 1778 c3 -5 10 -6 15 -3 13 9 11 12 -6 12 -8 0 -12 -4 -9 -9z"/>
<path d="M1927 1756 c-15 -12 -16 -14 -2 -20 8 -3 15 -11 15 -17 0 -8 -4 -8
-13 -1 -10 8 -16 6 -25 -9 -7 -10 -8 -19 -3 -19 5 0 11 5 13 12 3 8 10 8 26
-4 12 -8 19 -18 15 -22 -4 -4 1 -4 11 0 18 7 17 8 -1 18 -20 11 -21 36 -2 36
6 0 8 -4 5 -8 -3 -5 6 -15 20 -22 18 -10 21 -16 12 -23 -10 -6 -10 -8 1 -5 8
2 15 12 17 21 1 9 -2 14 -7 11 -11 -6 -65 46 -61 59 3 10 0 9 -21 -7z"/>
<path d="M1857 1749 c-9 -6 -22 -7 -27 -4 -6 3 -10 1 -10 -4 0 -6 -5 -10 -11
-8 -6 1 -13 -6 -14 -15 -2 -10 0 -17 3 -16 16 3 41 -15 35 -26 -3 -6 -3 -8 2
-4 4 4 13 3 20 -2 8 -7 12 -5 12 5 0 7 -3 13 -6 12 -3 -1 -6 3 -6 8 0 6 6 10
13 10 8 0 18 7 23 16 12 23 -10 41 -34 28z m26 -26 c-5 -12 -8 -13 -11 -4 -3
9 -8 8 -21 -3 -14 -13 -20 -14 -35 -3 -15 11 -14 13 11 15 15 1 31 6 37 12 14
14 26 2 19 -17z"/>
<path d="M571 1707 c2 -1 13 -9 24 -17 19 -14 19 -14 6 3 -7 9 -18 17 -24 17
-6 0 -8 -1 -6 -3z"/>
<path d="M707 1693 c3 -7 6 -13 8 -13 2 0 5 6 8 13 3 8 -1 14 -8 14 -7 0 -11
-6 -8 -14z"/>
<path d="M1356 1698 c3 -5 10 -6 15 -3 13 9 11 12 -6 12 -8 0 -12 -4 -9 -9z"/>
<path d="M1430 1700 c0 -5 5 -10 11 -10 5 0 7 5 4 10 -3 6 -8 10 -11 10 -2 0
-4 -4 -4 -10z"/>
<path d="M1590 1695 c-11 -13 -10 -14 4 -9 9 3 16 10 16 15 0 13 -6 11 -20 -6z"/>
<path d="M2039 1681 c-35 -35 -42 -50 -24 -47 8 1 18 6 22 11 4 4 2 5 -4 1
-15 -9 -18 10 -3 19 6 4 20 -4 31 -17 11 -13 18 -18 15 -12 -8 16 20 39 29 24
3 -5 1 -10 -4 -10 -6 0 -11 -8 -11 -17 0 -15 2 -14 15 3 12 16 16 17 24 4 6
-8 12 -12 15 -10 8 9 -48 75 -65 76 -8 1 -27 -11 -40 -25z m51 -1 c0 -4 -6
-13 -14 -19 -10 -9 -15 -8 -20 4 -3 8 -1 15 5 15 6 0 7 4 4 10 -3 6 1 7 9 4 9
-3 16 -10 16 -14z"/>
<path d="M3170 1696 c-17 -12 -26 -41 -11 -32 5 4 12 0 15 -6 3 -7 3 -2 -1 12
-5 22 -4 23 10 11 13 -10 14 -18 6 -35 -10 -20 -9 -20 10 2 30 34 5 75 -29 48z
m31 -13 c13 -16 12 -17 -3 -4 -17 13 -22 21 -14 21 2 0 10 -8 17 -17z"/>
<path d="M4150 1698 c0 -4 4 -8 9 -8 6 0 12 4 15 8 3 5 -1 9 -9 9 -8 0 -15 -4
-15 -9z"/>
<path d="M3431 1682 c-8 -12 -10 -13 -11 -3 0 8 -3 11 -6 8 -4 -4 -1 -14 7
-23 12 -15 11 -16 -11 -9 -24 7 -24 7 -5 -8 11 -9 22 -11 23 -6 2 5 8 9 13 9
6 0 7 -5 3 -12 -4 -7 -3 -8 5 -4 6 4 9 11 6 16 -3 5 4 8 15 7 14 -1 19 -6 15
-17 -4 -11 -2 -11 8 2 18 23 29 11 15 -16 -10 -19 -10 -20 5 -7 16 13 18 43 4
58 -11 10 -38 13 -32 3 3 -5 1 -11 -5 -15 -5 -3 -10 0 -10 8 0 22 -28 29 -39
9z m24 -13 c-4 -5 -12 -9 -18 -8 -9 0 -8 2 1 6 6 2 9 10 6 15 -4 7 -2 8 5 4 6
-4 9 -12 6 -17z m59 3 c3 -5 -1 -9 -9 -9 -8 0 -12 4 -9 9 3 4 7 8 9 8 2 0 6
-4 9 -8z"/>
<path d="M4256 1692 c-2 -4 6 -7 20 -7 32 2 39 10 9 13 -13 1 -26 -2 -29 -6z"/>
<path d="M1710 1678 c0 -4 7 -8 15 -8 8 0 15 4 15 8 0 5 -7 9 -15 9 -8 0 -15
-4 -15 -9z"/>
<path d="M1788 1683 c7 -3 16 -2 19 1 4 3 -2 6 -13 5 -11 0 -14 -3 -6 -6z"/>
<path d="M1916 1682 c-3 -5 1 -9 9 -9 8 0 12 4 9 9 -3 4 -7 8 -9 8 -2 0 -6 -4
-9 -8z"/>
<path d="M2150 1680 c0 -5 5 -10 11 -10 5 0 7 5 4 10 -3 6 -8 10 -11 10 -2 0
-4 -4 -4 -10z"/>
<path d="M2524 1678 c5 -25 18 -48 27 -48 4 0 13 9 19 20 8 16 8 18 -5 14 -8
-4 -17 1 -21 10 -7 19 -23 22 -20 4z m27 -25 c13 -16 12 -17 -3 -4 -10 7 -18
15 -18 17 0 8 8 3 21 -13z"/>
<path d="M955 1670 c-3 -5 -1 -10 4 -10 6 0 11 5 11 10 0 6 -2 10 -4 10 -3 0
-8 -4 -11 -10z"/>
<path d="M2702 1668 c-17 -17 24 -51 48 -38 10 5 20 6 24 3 4 -4 13 3 22 15 8
12 20 19 26 16 6 -4 8 -2 5 4 -6 8 -35 10 -44 2 -2 -2 -6 -3 -10 -4 -5 -1 -18
-7 -30 -14 -23 -13 -43 1 -22 14 8 5 9 3 4 -6 -5 -9 -4 -11 4 -6 6 4 9 12 6
17 -8 12 -19 11 -33 -3z m90 -10 c-14 -14 -44 -20 -36 -7 3 5 9 7 14 4 5 -3
11 -1 15 5 3 5 9 10 13 10 3 0 1 -5 -6 -12z"/>
<path d="M4067 1667 c-3 -8 3 -13 17 -14 11 0 15 1 8 4 -6 3 -10 9 -6 14 3 5
1 9 -4 9 -6 0 -12 -6 -15 -13z"/>
<path d="M699 1668 c-5 -18 -6 -38 -1 -34 7 8 12 36 6 36 -2 0 -4 -1 -5 -2z"/>
<path d="M1215 1660 c-3 -6 1 -7 9 -4 18 7 21 14 7 14 -6 0 -13 -4 -16 -10z"/>
<path d="M1765 1644 c-9 -15 -12 -23 -6 -20 11 7 35 46 28 46 -3 0 -12 -12
-22 -26z"/>
<path d="M4227 1663 c-3 -5 5 -8 18 -8 13 0 21 3 18 8 -2 4 -10 7 -18 7 -8 0
-16 -3 -18 -7z"/>
<path d="M721 1644 c0 -11 3 -14 6 -6 3 7 2 16 -1 19 -3 4 -6 -2 -5 -13z"/>
<path d="M3100 1651 c0 -6 4 -13 10 -16 6 -3 7 1 4 9 -7 18 -14 21 -14 7z"/>
<path d="M656 1642 c-3 -5 1 -9 9 -9 8 0 12 4 9 9 -3 4 -7 8 -9 8 -2 0 -6 -4
-9 -8z"/>
<path d="M750 1641 c0 -6 4 -13 10 -16 6 -3 7 1 4 9 -7 18 -14 21 -14 7z"/>
<path d="M790 1646 c0 -2 7 -7 16 -10 8 -3 12 -2 9 4 -6 10 -25 14 -25 6z"/>
<path d="M893 1635 c0 -8 4 -12 9 -9 5 3 6 10 3 15 -9 13 -12 11 -12 -6z"/>
<path d="M1110 1640 c0 -5 9 -8 20 -7 21 1 18 10 -5 13 -8 1 -15 -2 -15 -6z"/>
<path d="M1221 1636 c-9 -11 -9 -16 1 -22 7 -4 10 -4 6 1 -4 4 -3 14 3 22 6 7
9 13 6 13 -2 0 -10 -6 -16 -14z"/>
<path d="M1420 1646 c0 -2 7 -6 15 -10 8 -3 15 -1 15 4 0 6 -7 10 -15 10 -8 0
-15 -2 -15 -4z"/>
<path d="M1630 1639 c0 -5 5 -7 10 -4 6 3 10 8 10 11 0 2 -4 4 -10 4 -5 0 -10
-5 -10 -11z"/>
<path d="M3135 1641 c-3 -5 0 -13 6 -17 7 -4 9 -3 5 4 -3 5 0 13 6 15 9 4 10
6 1 6 -6 1 -14 -3 -18 -8z"/>
<path d="M4147 1643 c-3 -5 5 -8 18 -8 13 0 21 3 18 8 -2 4 -10 7 -18 7 -8 0
-16 -3 -18 -7z"/>
<path d="M2210 1632 c0 -7 -4 -10 -10 -7 -5 3 -10 2 -10 -4 0 -5 15 -8 33 -7
21 2 34 -2 39 -13 6 -12 7 -12 5 4 -1 13 -10 20 -22 20 -11 -1 -23 4 -27 10
-5 6 -8 5 -8 -3z"/>
<path d="M960 1620 c-9 -6 -10 -10 -3 -10 6 0 15 5 18 10 8 12 4 12 -15 0z"/>
<path d="M1367 1619 c7 -7 15 -10 18 -7 3 3 -2 9 -12 12 -14 6 -15 5 -6 -5z"/>
<path d="M1420 1626 c0 -2 8 -10 18 -17 15 -13 16 -12 3 4 -13 16 -21 21 -21
13z"/>
<path d="M1460 1626 c0 -2 11 -6 25 -8 13 -3 22 -1 19 3 -5 9 -44 13 -44 5z"/>
<path d="M1556 1621 c-3 -5 1 -14 8 -20 10 -9 16 -9 21 -1 4 6 3 10 -2 9 -20
-3 -27 2 -13 11 9 6 10 10 3 10 -6 0 -14 -4 -17 -9z"/>
<path d="M1590 1626 c0 -2 7 -7 16 -10 8 -3 12 -2 9 4 -6 10 -25 14 -25 6z"/>
<path d="M1640 1620 c-9 -6 -10 -10 -3 -10 6 0 15 5 18 10 8 12 4 12 -15 0z"/>
<path d="M2039 1613 c-13 -16 -12 -17 4 -4 16 13 21 21 13 21 -2 0 -10 -8 -17
-17z"/>
<path d="M2113 1618 c1 -7 -4 -12 -11 -10 -8 1 -11 -2 -7 -8 5 -8 11 -8 21 1
7 6 11 15 8 20 -8 13 -14 11 -11 -3z"/>
<path d="M2355 1621 c-3 -5 -2 -12 3 -15 5 -3 9 1 9 9 0 17 -3 19 -12 6z"/>
<path d="M2479 1628 c-5 -18 -6 -38 -1 -34 7 8 12 36 6 36 -2 0 -4 -1 -5 -2z"/>
<path d="M3300 1620 c-12 -7 -10 -9 7 -7 12 0 19 5 17 9 -6 10 -6 10 -24 -2z"/>
<path d="M3456 1621 c-3 -5 2 -15 12 -22 15 -12 16 -12 5 2 -7 9 -10 19 -6 22
3 4 4 7 0 7 -3 0 -8 -4 -11 -9z"/>
<path d="M3556 1621 c-3 -5 2 -15 12 -22 15 -12 16 -12 5 2 -7 9 -10 19 -6 22
3 4 4 7 0 7 -3 0 -8 -4 -11 -9z"/>
<path d="M1669 1603 c-13 -16 -12 -17 4 -4 9 7 17 15 17 17 0 8 -8 3 -21 -13z"/>
<path d="M2691 1611 c-9 -6 -10 -11 -2 -15 6 -4 8 -13 5 -19 -4 -7 -3 -9 1 -4
7 5 16 48 11 47 -1 0 -7 -4 -15 -9z"/>
<path d="M2780 1616 c0 -2 7 -7 16 -10 8 -3 12 -2 9 4 -6 10 -25 14 -25 6z"/>
<path d="M2821 1604 c0 -11 3 -14 6 -6 3 7 2 16 -1 19 -3 4 -6 -2 -5 -13z"/>
<path d="M3404 1598 l-19 -23 23 19 c21 18 27 26 19 26 -2 0 -12 -10 -23 -22z"/>
<path d="M1006 1598 c3 -5 10 -6 15 -3 13 9 11 12 -6 12 -8 0 -12 -4 -9 -9z"/>
<path d="M2854 1596 c1 -8 5 -18 8 -22 4 -3 5 1 4 10 -1 8 -5 18 -8 22 -4 3
-5 -1 -4 -10z"/>
<path d="M2896 1593 c-6 -14 -5 -15 5 -6 7 7 10 15 7 18 -3 3 -9 -2 -12 -12z"/>
<path d="M4126 1598 c3 -5 10 -6 15 -3 13 9 11 12 -6 12 -8 0 -12 -4 -9 -9z"/>
<path d="M2233 1585 c0 -8 4 -12 9 -9 5 3 6 10 3 15 -9 13 -12 11 -12 -6z"/>
<path d="M2435 1589 c-4 -6 -5 -12 -2 -15 2 -3 7 2 10 11 7 17 1 20 -8 4z"/>
<path d="M2970 1580 c0 -5 5 -10 11 -10 5 0 7 5 4 10 -3 6 -8 10 -11 10 -2 0
-4 -4 -4 -10z"/>
<path d="M2620 1566 c0 -2 8 -10 18 -17 15 -13 16 -12 3 4 -13 16 -21 21 -21
13z"/>
</g>
</svg>
